<?xml version="1.0" encoding="iso-8859-1"?>
<!-- Generator: Adobe Illustrator 16.0.0, SVG Export Plug-In . SVG Version: 6.00 Build 0)  -->
<!DOCTYPE svg PUBLIC "-//W3C//DTD SVG 1.1//EN" "http://www.w3.org/Graphics/SVG/1.1/DTD/svg11.dtd">
<svg version="1.1" id="Capa_1" xmlns="http://www.w3.org/2000/svg" xmlns:xlink="http://www.w3.org/1999/xlink" x="0px" y="0px"
	 width="450.075px" height="450.074px" viewBox="0 0 450.075 450.074" style="enable-background:new 0 0 450.075 450.074;"
	 xml:space="preserve">
<g>
	<path d="M424.02,136.578c-14.961-26.944-47.312-41.783-91.096-41.783c-2.855,0-5.742,0.062-8.654,0.183
		c-0.232-0.465-0.461-0.937-0.695-1.398c-11.348-22.247-24.992-39.207-40.119-50.315C283.075,19.345,263.511,0,239.5,0
		c-24.003,0-43.563,19.334-43.954,43.245c-15.127,11.111-28.77,28.087-40.117,50.335c-0.236,0.461-0.463,0.933-0.697,1.398
		c-2.912-0.122-5.799-0.183-8.654-0.183c-37.674,0-66.873,10.997-83.822,31.229c-0.314-0.007-0.627-0.024-0.943-0.024
		c-24.248,0-43.975,19.727-43.975,43.974c0,22.4,16.84,40.928,38.521,43.623c3.592,8.327,8.176,16.829,13.76,25.435
		c-24.867,38.331-30.086,74.608-14.635,102.438c14.959,26.943,47.311,41.782,91.094,41.783h0.006c2.855,0,5.738-0.062,8.648-0.183
		c0.234,0.464,0.461,0.936,0.697,1.396c21.58,42.308,51.438,65.606,84.071,65.606c32.638,0,62.494-23.299,84.074-65.606
		c0.234-0.461,0.461-0.933,0.693-1.396c2.914,0.122,5.801,0.183,8.656,0.183c43.783,0,76.135-14.839,91.096-41.783
		c15.451-27.83,10.23-64.111-14.641-102.445C434.25,200.69,439.471,164.409,424.02,136.578z M397.792,151.14
		c8.57,15.438,5.625,37.622-7.908,62.116c-11.697-13.499-25.395-26.549-40.691-38.793c-2.971-17.496-7.152-34.165-12.463-49.62
		C367.12,125.553,388.733,134.824,397.792,151.14z M282.004,346.639c4.453-2.262,8.896-4.615,13.318-7.072
		c5.951-3.303,11.77-6.741,17.457-10.285c-2.135,7.607-4.549,14.933-7.232,21.923C297.879,350.107,290.006,348.574,282.004,346.639z
		 M173.454,351.204c-2.684-6.987-5.1-14.308-7.234-21.911c5.688,3.542,11.512,6.971,17.459,10.273
		c4.426,2.457,8.867,4.811,13.32,7.072C188.997,348.575,181.122,350.109,173.454,351.204z M198.241,313.338
		c-14.439-8.017-28.043-16.801-40.59-26.139c-2.074-15.501-3.15-31.66-3.15-48.176c0-16.514,1.076-32.673,3.15-48.174
		c12.547-9.337,26.15-18.122,40.59-26.139c13.564-7.531,27.426-14.099,41.259-19.625c13.834,5.526,27.697,12.094,41.26,19.625
		c14.439,8.017,28.045,16.801,40.592,26.139c2.072,15.501,3.148,31.66,3.148,48.174c0,2.935-0.045,5.853-0.111,8.762
		c-16.121,6.525-27.527,22.337-27.527,40.771c0,4.853,0.801,9.519,2.26,13.887c-5.951,3.764-12.072,7.404-18.359,10.895
		c-13.562,7.53-27.426,14.1-41.26,19.625C225.669,327.438,211.806,320.869,198.241,313.338z M125.009,259.276
		c-6.682-6.618-12.818-13.388-18.348-20.253c5.529-6.864,11.666-13.633,18.348-20.251c-0.336,6.691-0.508,13.449-0.508,20.251
		C124.501,245.828,124.673,252.584,125.009,259.276z M173.454,126.844c7.668,1.095,15.541,2.629,23.545,4.564
		c-4.453,2.262-8.895,4.616-13.32,7.073c-5.947,3.303-11.773,6.731-17.459,10.273C168.354,141.151,170.768,133.831,173.454,126.844z
		 M305.547,126.844c2.688,6.987,5.102,14.307,7.236,21.911c-5.688-3.542-11.512-6.971-17.461-10.273
		c-4.424-2.457-8.867-4.811-13.318-7.073C290.006,129.474,297.879,127.939,305.547,126.844z M362.565,250.352
		c-2.566-1.465-5.291-2.682-8.145-3.611c0.047-2.564,0.08-5.137,0.08-7.717c0-6.803-0.17-13.561-0.506-20.251
		c6.682,6.619,12.818,13.388,18.346,20.251C369.272,242.833,366,246.61,362.565,250.352z M206.624,73.132
		c8.061,9.079,19.809,14.815,32.876,14.815c13.07,0,24.818-5.737,32.879-14.818c6.986,6.54,13.645,15.095,19.729,25.441
		c-17.104,3.027-34.773,7.846-52.605,14.331c-17.831-6.484-35.502-11.304-52.604-14.331
		C192.981,88.223,199.638,79.673,206.624,73.132z M142.276,124.844c-5.313,15.455-9.494,32.124-12.465,49.62
		c-15.299,12.244-28.994,25.295-40.693,38.794c-1.244-2.251-2.395-4.481-3.459-6.69c11.82-7.891,19.625-21.347,19.625-36.594
		c0-12.211-5.006-23.272-13.07-31.248C103.589,130.153,120.725,125.347,142.276,124.844z M81.212,326.908
		c-8.572-15.438-5.625-37.622,7.908-62.116c11.699,13.499,25.395,26.55,40.691,38.793c2.971,17.495,7.154,34.164,12.465,49.619
		C111.882,352.494,90.27,343.223,81.212,326.908z M239.5,420.074c-18.518,0-37.373-14.666-52.614-40.594
		c17.105-3.027,34.781-7.848,52.614-14.334c17.836,6.486,35.513,11.307,52.615,14.334
		C276.875,405.408,258.018,420.074,239.5,420.074z M397.792,326.908c-9.061,16.318-30.676,25.589-61.076,26.297
		c2.303-6.693,4.395-13.611,6.264-20.729c23.256-1.123,41.83-20.392,41.83-43.92c0-5.328-0.953-10.438-2.699-15.17
		c2.682-2.842,5.27-5.709,7.771-8.596C403.415,289.285,406.362,311.471,397.792,326.908z"/>
</g>
<g>
</g>
<g>
</g>
<g>
</g>
<g>
</g>
<g>
</g>
<g>
</g>
<g>
</g>
<g>
</g>
<g>
</g>
<g>
</g>
<g>
</g>
<g>
</g>
<g>
</g>
<g>
</g>
<g>
</g>
</svg>
