<?xml version="1.0" encoding="iso-8859-1"?>
<!-- Generator: Adobe Illustrator 16.0.0, SVG Export Plug-In . SVG Version: 6.00 Build 0)  -->
<!DOCTYPE svg PUBLIC "-//W3C//DTD SVG 1.1//EN" "http://www.w3.org/Graphics/SVG/1.1/DTD/svg11.dtd">
<svg version="1.1" id="Capa_1" xmlns="http://www.w3.org/2000/svg" xmlns:xlink="http://www.w3.org/1999/xlink" x="0px" y="0px"
	 width="436.717px" height="436.717px" viewBox="0 0 436.717 436.717" style="enable-background:new 0 0 436.717 436.717;"
	 xml:space="preserve">
<g>
	<g>
		<path d="M318.409,34.292h-54.473V11.117C263.937,4.978,258.958,0,252.819,0h-68.924c-6.139,0-11.115,4.978-11.115,11.117v23.175
			h-54.473c-12.279,0-22.234,9.954-22.234,22.233v357.958c0,12.279,9.955,22.234,22.234,22.234h200.102
			c12.279,0,22.234-9.955,22.234-22.234V56.526C340.644,44.246,330.688,34.292,318.409,34.292z M296.177,392.25H140.541V78.759
			h155.637L296.177,392.25L296.177,392.25z"/>
		<g>
			<path d="M270.607,103.407H166.109c-3.07,0-5.559,2.489-5.559,5.558v30.386c0,3.069,2.488,5.558,5.559,5.558h104.498
				c3.07,0,5.559-2.489,5.559-5.558v-30.386C276.166,105.896,273.678,103.407,270.607,103.407z"/>
			<path d="M270.607,178.407H166.109c-3.07,0-5.559,2.489-5.559,5.558v30.386c0,3.069,2.488,5.557,5.559,5.557h104.498
				c3.07,0,5.559-2.488,5.559-5.557v-30.386C276.166,180.896,273.678,178.407,270.607,178.407z"/>
			<path d="M270.607,253.406H166.109c-3.07,0-5.559,2.49-5.559,5.559v30.387c0,3.068,2.488,5.557,5.559,5.557h104.498
				c3.07,0,5.559-2.488,5.559-5.557v-30.387C276.166,255.896,273.678,253.406,270.607,253.406z"/>
			<path d="M270.607,328.406H166.109c-3.07,0-5.559,2.49-5.559,5.559v30.387c0,3.068,2.488,5.557,5.559,5.557h104.498
				c3.07,0,5.559-2.488,5.559-5.557v-30.387C276.166,330.896,273.678,328.406,270.607,328.406z"/>
		</g>
	</g>
</g>
<g>
</g>
<g>
</g>
<g>
</g>
<g>
</g>
<g>
</g>
<g>
</g>
<g>
</g>
<g>
</g>
<g>
</g>
<g>
</g>
<g>
</g>
<g>
</g>
<g>
</g>
<g>
</g>
<g>
</g>
</svg>
