<?xml version="1.0" encoding="iso-8859-1"?>
<!-- Generator: Adobe Illustrator 16.0.0, SVG Export Plug-In . SVG Version: 6.00 Build 0)  -->
<!DOCTYPE svg PUBLIC "-//W3C//DTD SVG 1.1//EN" "http://www.w3.org/Graphics/SVG/1.1/DTD/svg11.dtd">
<svg version="1.1" id="Capa_1" xmlns="http://www.w3.org/2000/svg" xmlns:xlink="http://www.w3.org/1999/xlink" x="0px" y="0px"
	 width="436.717px" height="436.717px" viewBox="0 0 436.717 436.717" style="enable-background:new 0 0 436.717 436.717;"
	 xml:space="preserve">
<g>
	<g>
		<path d="M318.409,34.292h-54.473V11.117C263.937,4.978,258.958,0,252.819,0h-68.924c-6.139,0-11.115,4.978-11.115,11.117v23.175
			h-54.473c-12.279,0-22.234,9.954-22.234,22.233v357.958c0,12.279,9.955,22.234,22.234,22.234h200.102
			c12.279,0,22.234-9.955,22.234-22.234V56.526C340.644,44.246,330.688,34.292,318.409,34.292z M296.177,392.25H140.541V78.759
			h155.637L296.177,392.25L296.177,392.25z"/>
		<path d="M166.108,230.984h104.498c3.07,0,5.559-2.49,5.559-5.559v-30.387c0-3.069-2.487-5.558-5.559-5.558H166.108
			c-3.07,0-5.559,2.489-5.559,5.558v30.386C160.549,228.494,163.039,230.984,166.108,230.984z"/>
		<path d="M166.108,297.684h104.498c3.07,0,5.559-2.488,5.559-5.559v-30.387c0-3.069-2.487-5.559-5.559-5.559H166.108
			c-3.07,0-5.559,2.489-5.559,5.559v30.387C160.549,295.195,163.039,297.684,166.108,297.684z"/>
		<path d="M166.108,364.385h104.498c3.07,0,5.559-2.49,5.559-5.561v-30.385c0-3.069-2.487-5.559-5.559-5.559H166.108
			c-3.07,0-5.559,2.489-5.559,5.559v30.385C160.549,361.895,163.039,364.385,166.108,364.385z"/>
		<path d="M185.84,146.793h20.4v20.4c0,3.069,2.488,5.558,5.559,5.558h13.118c3.069,0,5.559-2.489,5.559-5.558v-20.4h20.398
			c3.069,0,5.559-2.489,5.559-5.559v-13.116c0-3.07-2.488-5.559-5.559-5.559h-20.398v-20.4c0-3.069-2.488-5.558-5.559-5.558h-13.118
			c-3.07,0-5.559,2.488-5.559,5.558v20.4h-20.4c-3.07,0-5.559,2.488-5.559,5.559v13.116
			C180.282,144.304,182.771,146.793,185.84,146.793z"/>
	</g>
</g>
<g>
</g>
<g>
</g>
<g>
</g>
<g>
</g>
<g>
</g>
<g>
</g>
<g>
</g>
<g>
</g>
<g>
</g>
<g>
</g>
<g>
</g>
<g>
</g>
<g>
</g>
<g>
</g>
<g>
</g>
</svg>
