<?xml version="1.0" encoding="iso-8859-1"?>
<!-- Generator: Adobe Illustrator 16.0.0, SVG Export Plug-In . SVG Version: 6.00 Build 0)  -->
<!DOCTYPE svg PUBLIC "-//W3C//DTD SVG 1.1//EN" "http://www.w3.org/Graphics/SVG/1.1/DTD/svg11.dtd">
<svg version="1.1" id="Capa_1" xmlns="http://www.w3.org/2000/svg" xmlns:xlink="http://www.w3.org/1999/xlink" x="0px" y="0px"
	 width="433.09px" height="433.09px" viewBox="0 0 433.09 433.09" style="enable-background:new 0 0 433.09 433.09;"
	 xml:space="preserve">
<g>
	<path d="M315.398,269.662h-52.145c7.944-5.459,15.171-12.389,21.454-20.688c16.831-22.23,25.728-52.581,25.728-87.768
		c0-2.972-0.12-5.827-0.333-8.586h19.655c3.586,0,6.493-2.907,6.493-6.495v-31.699c0-3.585-2.907-6.492-6.493-6.492h-5.254
		c-1.65-27.686-14.365-53.091-35.805-71.538c-1.641-1.413-3.874-1.914-5.96-1.339c-2.085,0.574-3.748,2.15-4.434,4.201
		c-1.396,4.171-5.298,14.56-19.209,43.262c-0.498-0.192-0.995-0.384-1.498-0.567c5.347-28.093,4.955-68.035,4.798-70.776
		c-0.164-2.809-2.117-5.193-4.838-5.906c-26.845-7.033-55.247-7.023-82.021-0.003c-2.722,0.714-4.676,3.102-4.835,5.913
		c-0.146,2.566-1.839,43.595,4.789,70.772c-0.498,0.183-0.99,0.373-1.482,0.563c-5.896-9.74-17.834-39.097-19.22-43.254
		c-0.685-2.052-2.347-3.631-4.434-4.205c-2.086-0.575-4.322-0.074-5.963,1.339c-21.431,18.447-34.147,43.852-35.807,71.538h-5.249
		c-3.587,0-6.494,2.907-6.494,6.492v31.699c0,3.587,2.907,6.495,6.494,6.495h19.654c-0.212,2.759-0.333,5.614-0.333,8.586
		c0,35.188,8.896,65.538,25.729,87.768c6.283,8.299,13.51,15.229,21.454,20.688h-52.145c-30.087,0-54.478,24.389-54.478,54.477
		V433.09h306.656V324.137C369.875,294.051,345.484,269.662,315.398,269.662z M152.993,158.179c0-1.913,0.072-3.755,0.187-5.559
		h126.734c0.114,1.804,0.187,3.646,0.187,5.559c0,30.909-7.148,56.689-20.675,74.553c-11.312,14.939-26.14,22.837-42.879,22.837
		c-16.739,0-31.566-7.897-42.879-22.837C160.144,214.869,152.993,189.088,152.993,158.179z M172.562,271.463
		c9.896,6.256,20.83,10.285,32.405,11.898l-8.823,8.823c-1.534,1.534-1.534,4.021,0,5.556l9.258,9.258l-9.258,9.258
		c-0.895,0.896-1.304,2.168-1.098,3.416l10.006,60.773h-1.667l-30.872-107.033C172.513,273.412,172.53,272.476,172.562,271.463z
		 M229.711,380.445h-1.668l10.005-60.773c0.206-1.25-0.203-2.521-1.099-3.416l-9.258-9.258l9.258-9.258
		c0.736-0.736,1.15-1.736,1.15-2.777c0-1.043-0.414-2.041-1.15-2.778l-8.822-8.823c11.575-1.613,22.511-5.643,32.404-11.898
		c0.031,1.013,0.051,1.949,0.051,1.949L229.711,380.445z"/>
</g>
<g>
</g>
<g>
</g>
<g>
</g>
<g>
</g>
<g>
</g>
<g>
</g>
<g>
</g>
<g>
</g>
<g>
</g>
<g>
</g>
<g>
</g>
<g>
</g>
<g>
</g>
<g>
</g>
<g>
</g>
</svg>
