<?xml version="1.0" encoding="iso-8859-1"?>
<!-- Generator: Adobe Illustrator 16.0.0, SVG Export Plug-In . SVG Version: 6.00 Build 0)  -->
<!DOCTYPE svg PUBLIC "-//W3C//DTD SVG 1.1//EN" "http://www.w3.org/Graphics/SVG/1.1/DTD/svg11.dtd">
<svg version="1.1" id="Capa_1" xmlns="http://www.w3.org/2000/svg" xmlns:xlink="http://www.w3.org/1999/xlink" x="0px" y="0px"
	 width="468.487px" height="468.487px" viewBox="0 0 468.487 468.487" style="enable-background:new 0 0 468.487 468.487;"
	 xml:space="preserve">
<g>
	<g>
		<path d="M15.362,239.914h115.842c2.922,0,5.289-2.369,5.289-5.29v-34.911c0-2.922-2.367-5.29-5.289-5.29H15.362
			c-2.922,0-5.289,2.368-5.289,5.29v34.911C10.073,237.545,12.439,239.914,15.362,239.914z"/>
		<path d="M15.362,181.063h115.842c2.922,0,5.289-2.368,5.289-5.289v-34.912c0-2.921-2.367-5.29-5.289-5.29H15.362
			c-2.922,0-5.289,2.369-5.289,5.29v34.912C10.073,178.695,12.439,181.063,15.362,181.063z"/>
		<path d="M458.761,330.79c10.07-11.237,6.705-42.845,6.705-42.845c-0.42-2.558-2.629-4.432-5.219-4.432c0,0-0.004,0-0.006,0
			l-10.207,0.007c-0.914,0.001-1.953,0.003-3.092,0.005v-6.896c0-2.921-2.369-5.29-5.291-5.29h-9.875v-52.724
			c1.604-0.373,2.971-1.482,3.647-3.032l10.58-24.189c0.713-1.635,0.558-3.521-0.42-5.015c-0.979-1.494-2.643-2.395-4.428-2.395
			h-9.381v-8.354c0-2.921-2.367-5.29-5.289-5.29h-12.49v-16.782c0-2.922-2.367-5.29-5.289-5.29h-42.729
			c-2.923,0-5.291,2.368-5.291,5.29v16.782h-9.521h-2.967c-2.922,0-5.291,2.369-5.291,5.29v8.354h-9.379
			c-1.785,0-3.449,0.9-4.429,2.395c-0.977,1.494-1.135,3.38-0.42,5.015l10.58,24.189c0.679,1.55,2.045,2.659,3.646,3.032v52.724
			h-9.873c-2.922,0-5.291,2.369-5.291,5.29v14.082l-6.758,6.42c-5.363,0.006-10.357,0.011-15.041,0.015V196.246h3.994
			c3.327,0,6.028-2.7,6.028-6.03v-20.904c0-3.33-2.701-6.03-6.028-6.03h-18.955L166.14,98.948c-1.309-0.674-2.873-0.618-4.129,0.148
			c-1.258,0.766-2.025,2.131-2.025,3.604v10.251c0,1.343,0.639,2.604,1.717,3.4l11.764,8.661v66.345h-15.223
			c-2.33,0-4.221,1.89-4.221,4.221v25.69c0,2.331,1.891,4.221,4.221,4.221h38.891c2.334,0,4.223-1.89,4.223-4.221v-25.69
			c0-2.331-1.889-4.221-4.223-4.221H181.91v-60.131l90.84,55.114v3.876c0,3.33,2.701,6.03,6.031,6.03h2.264v100.923
			c-35.791,0.027-98.208-0.033-98.208-0.033l-35.381-18.737v-20.128c0-2.922-2.369-5.289-5.291-5.289L5.281,252.851
			c-1.527,0.002-2.977,0.664-3.98,1.815s-1.459,2.68-1.252,4.193l1.48,10.8c3.494,25.469,19.4,51.445,31.041,67.571
			c-5.148,3.092-8.561,8.719-8.561,15.133c0,9.729,7.914,17.645,17.645,17.645l22.338-0.001
			c84.059-0.005,377.202-0.018,389.051-0.018C482.187,369.988,461.679,334.017,458.761,330.79z M172.309,332.521
			c0,1.462-1.182,2.646-2.643,2.646h-17.457c-1.461,0-2.646-1.184-2.646-2.646v-11.107c0-1.461,1.186-2.646,2.646-2.646h17.457
			c1.461,0,2.643,1.185,2.643,2.646V332.521z M246.368,332.521c0,1.462-1.185,2.646-2.646,2.646h-17.457
			c-1.461,0-2.645-1.184-2.645-2.646v-11.107c0-1.461,1.184-2.646,2.645-2.646h17.457c1.461,0,2.646,1.185,2.646,2.646V332.521z
			 M320.427,332.521c0,1.462-1.186,2.646-2.646,2.646h-17.455c-1.463,0-2.646-1.184-2.646-2.646v-11.107
			c0-1.461,1.185-2.646,2.646-2.646h17.455c1.461,0,2.646,1.185,2.646,2.646V332.521z M377.026,206.623
			c0,1.461-1.185,2.646-2.646,2.646h-17.455c-1.461,0-2.646-1.185-2.646-2.646v-11.108c0-1.461,1.186-2.645,2.646-2.645h17.455
			c1.461,0,2.646,1.184,2.646,2.645V206.623z M420.403,206.623c0,1.461-1.185,2.646-2.646,2.646h-17.457
			c-1.461,0-2.643-1.185-2.643-2.646v-11.108c0-1.461,1.182-2.645,2.643-2.645h17.457c1.461,0,2.646,1.184,2.646,2.645V206.623z"/>
	</g>
</g>
<g>
</g>
<g>
</g>
<g>
</g>
<g>
</g>
<g>
</g>
<g>
</g>
<g>
</g>
<g>
</g>
<g>
</g>
<g>
</g>
<g>
</g>
<g>
</g>
<g>
</g>
<g>
</g>
<g>
</g>
</svg>
