<?xml version="1.0" encoding="iso-8859-1"?>
<!-- Generator: Adobe Illustrator 16.0.0, SVG Export Plug-In . SVG Version: 6.00 Build 0)  -->
<!DOCTYPE svg PUBLIC "-//W3C//DTD SVG 1.1//EN" "http://www.w3.org/Graphics/SVG/1.1/DTD/svg11.dtd">
<svg version="1.1" id="Capa_1" xmlns="http://www.w3.org/2000/svg" xmlns:xlink="http://www.w3.org/1999/xlink" x="0px" y="0px"
	 width="446.275px" height="446.275px" viewBox="0 0 446.275 446.275" style="enable-background:new 0 0 446.275 446.275;"
	 xml:space="preserve">
<g>
	<path d="M412.308,329.488h-53.205v-18.485h32.453c9.769,0,17.687-7.918,17.687-17.686V167.039c0-9.769-7.918-17.687-17.687-17.687
		h-71.627c-5.302,0-10.324,2.379-13.684,6.48l-12.738,15.557L100.891,2.59c-3.454-3.453-9.053-3.453-12.506,0L69.627,21.349
		c-3.453,3.453-3.453,9.053,0,12.505l20.978,23.939V214.35H42.808c-7.325,0-13.264,5.938-13.264,13.265v100.061
		c0,7.326,5.939,13.264,13.264,13.264h122.124c7.326,0,13.264-5.938,13.264-13.264v-100.06c0-7.326-5.938-13.265-13.264-13.265
		h-47.797V88.064l126.451,144.291l-8.966,10.95c-2.588,3.161-4.002,7.119-4.002,11.205v38.808c0,9.768,7.918,17.686,17.686,17.686
		h32.454v18.485h-53.205c-2.442,0-4.421,1.979-4.421,4.421v107.944c0,2.441,1.979,4.421,4.421,4.421H412.31
		c2.441,0,4.421-1.979,4.421-4.421V333.909C416.73,331.467,414.75,329.488,412.308,329.488z M56.073,314.411v-59.188l72.24,59.188
		H56.073z M151.668,240.879v59.188l-72.24-59.188H151.668z M265.99,260.827l62.317-76.104h45.564v76.063L265.99,260.827z"/>
</g>
<g>
</g>
<g>
</g>
<g>
</g>
<g>
</g>
<g>
</g>
<g>
</g>
<g>
</g>
<g>
</g>
<g>
</g>
<g>
</g>
<g>
</g>
<g>
</g>
<g>
</g>
<g>
</g>
<g>
</g>
</svg>
