<?xml version="1.0" encoding="iso-8859-1"?>
<!-- Generator: Adobe Illustrator 16.0.0, SVG Export Plug-In . SVG Version: 6.00 Build 0)  -->
<!DOCTYPE svg PUBLIC "-//W3C//DTD SVG 1.1//EN" "http://www.w3.org/Graphics/SVG/1.1/DTD/svg11.dtd">
<svg version="1.1" id="Capa_1" xmlns="http://www.w3.org/2000/svg" xmlns:xlink="http://www.w3.org/1999/xlink" x="0px" y="0px"
	 width="447.561px" height="447.561px" viewBox="0 0 447.561 447.561" style="enable-background:new 0 0 447.561 447.561;"
	 xml:space="preserve">
<g>
	<path d="M434.455,78.808h-6.252v-31.76c0-7.238-5.869-13.106-13.106-13.106c-7.238,0-13.105,5.868-13.105,13.106v31.761h-46.729
		V47.048c0-7.238-5.867-13.106-13.107-13.106s-13.107,5.868-13.107,13.106v31.761h-6.252c-7.235,0-13.104,5.868-13.104,13.106
		c0,7.238,5.869,13.106,13.104,13.106l3.933-0.001v39.505c0,18.245,0.938,21.57,2.715,24.46l19.012,30.941
		c2.744,4.466,7.234,7.493,12.287,8.43v27.648h7.887v46.6c0,16.542-13.459,30-30,30h-26.332c0.175-6.158,0.097-10.21,0.097-10.21
		c-0.381-13.114-6.689-24.392-16.742-32.597c-10.336-8.438-11.5-17.274-16.402-29.117c-9.381-22.663-28.336-43.138-54.303-43.32
		H87.463c-25.967,0.183-44.922,20.657-54.303,43.32c-4.9,11.843-6.066,20.68-16.402,29.117
		c-10.051,8.205-16.359,19.481-16.74,32.597c0,0-1.25,64.867,17.275,69.954v29.466c0,6.519,5.283,11.804,11.803,11.804h30.691
		c6.52,0,11.805-5.285,11.805-11.804v-29.14h169.222v29.14c0,6.519,5.286,11.804,11.807,11.804h30.689
		c6.52,0,11.803-5.285,11.803-11.804v-29.466c9.789-2.689,14.057-22.065,15.904-39.744h27.608c27.57,0,50-22.43,50-50v-46.6h7.886
		v-27.648c5.053-0.937,9.543-3.964,12.286-8.43l19.013-30.941c1.774-2.89,2.717-6.215,2.717-9.606v-54.357h3.93
		c7.236,0,13.104-5.868,13.104-13.106C447.561,84.678,441.691,78.808,434.455,78.808z M51.092,258.415
		c0.83-2.277,1.688-4.634,2.676-7.013c3.373-8.151,16.34-34.759,41.592-34.937h121.686c25.254,0.178,38.221,26.785,41.594,34.937
		c0.986,2.379,1.847,4.733,2.675,7.013c0.192,0.523,0.387,1.053,0.582,1.584H50.511C50.707,259.468,50.9,258.939,51.092,258.415z
		 M81.877,337.106c-0.557,0.609-1.281,1.031-2.068,1.222c-0.348,0.084-0.703,0.123-1.068,0.114l-43.439-0.053
		c-1.041-0.025-2.031-0.442-2.777-1.168c-4.363-4.252-6.023-10.959-4.557-16.66c1.686-6.551,7.182-11.999,14.006-13.879
		c0.76-0.207,1.563-0.196,2.313,0.037l33.961,10.519c1.594,0.494,2.732,1.899,2.883,3.562c0.266,2.886,0.598,4.939,0.953,7.114
		c0.289,1.782,0.59,3.625,0.854,5.951C83.066,335.046,82.681,336.229,81.877,337.106z M279.881,337.222
		c-0.743,0.726-1.733,1.144-2.774,1.168l-43.441,0.053c-0.363,0.009-0.721-0.03-1.068-0.114c-0.784-0.19-1.51-0.612-2.067-1.222
		c-0.806-0.878-1.188-2.061-1.058-3.242c0.265-2.326,0.563-4.169,0.854-5.951c0.354-2.174,0.688-4.229,0.951-7.113
		c0.149-1.662,1.291-3.067,2.883-3.562l33.961-10.52c0.752-0.232,1.555-0.242,2.313-0.035c6.825,1.879,12.32,7.328,14.007,13.877
		C285.906,326.261,284.244,332.97,279.881,337.222z M402.129,156.992h-47.008c-4.346,0-7.865-3.521-7.865-7.864
		c0-4.343,3.521-7.864,7.865-7.864h47.008c4.345,0,7.863,3.521,7.863,7.864C409.992,153.471,406.473,156.992,402.129,156.992z
		 M402.129,128.682h-47.008c-4.346,0-7.865-3.521-7.865-7.864c0-4.343,3.521-7.864,7.865-7.864h47.008
		c4.345,0,7.863,3.521,7.863,7.864C409.992,125.161,406.473,128.682,402.129,128.682z"/>
</g>
<g>
</g>
<g>
</g>
<g>
</g>
<g>
</g>
<g>
</g>
<g>
</g>
<g>
</g>
<g>
</g>
<g>
</g>
<g>
</g>
<g>
</g>
<g>
</g>
<g>
</g>
<g>
</g>
<g>
</g>
</svg>
