<?xml version="1.0" encoding="iso-8859-1"?>
<!-- Generator: Adobe Illustrator 16.0.0, SVG Export Plug-In . SVG Version: 6.00 Build 0)  -->
<!DOCTYPE svg PUBLIC "-//W3C//DTD SVG 1.1//EN" "http://www.w3.org/Graphics/SVG/1.1/DTD/svg11.dtd">
<svg version="1.1" id="Capa_1" xmlns="http://www.w3.org/2000/svg" xmlns:xlink="http://www.w3.org/1999/xlink" x="0px" y="0px"
	 width="455.832px" height="455.832px" viewBox="0 0 455.832 455.832" style="enable-background:new 0 0 455.832 455.832;"
	 xml:space="preserve">
<g>
	<path d="M455.367,366.179c-24.904-86.488-36.803-180.364-35.365-279.021c0.029-1.994-0.757-3.953-2.157-5.375
		c-1.399-1.42-3.347-2.235-5.341-2.235l-47.746,0.001l-95.49-0.001c-1.994,0-3.939,0.815-5.341,2.235
		c-1.399,1.42-2.187,3.378-2.157,5.373c1.094,75.745-5.717,149.122-20.242,218.137h-14.462V160.619c0-3.264-2.655-5.92-5.92-5.92
		h-28.33c-1.226,0-2.404,0.373-3.408,1.079l-62.908,44.283v-39.442c0-3.264-2.656-5.92-5.922-5.92h-28.33
		c-1.226,0-2.404,0.373-3.408,1.079L2.513,216.546C0.94,217.653,0,219.463,0,221.386v148.978c0,3.265,2.655,5.921,5.92,5.921
		h442.412c4.135,0,7.5-3.364,7.5-7.5C455.832,367.888,455.676,367.011,455.367,366.179z M196.535,244.233v22.572
		c0,0.508-0.413,0.92-0.92,0.92h-44.119c-0.507,0-0.92-0.412-0.92-0.92v-22.572c0-0.508,0.413-0.92,0.92-0.92h44.119
		C196.122,243.313,196.535,243.726,196.535,244.233z M76.488,244.233v22.572c0,0.508-0.413,0.92-0.92,0.92H31.449
		c-0.507,0-0.92-0.412-0.92-0.92v-22.572c0-0.508,0.413-0.92,0.92-0.92h44.119C76.075,243.313,76.488,243.726,76.488,244.233z"/>
</g>
<g>
</g>
<g>
</g>
<g>
</g>
<g>
</g>
<g>
</g>
<g>
</g>
<g>
</g>
<g>
</g>
<g>
</g>
<g>
</g>
<g>
</g>
<g>
</g>
<g>
</g>
<g>
</g>
<g>
</g>
</svg>
