<?xml version="1.0" encoding="iso-8859-1"?>
<!-- Generator: Adobe Illustrator 16.0.0, SVG Export Plug-In . SVG Version: 6.00 Build 0)  -->
<!DOCTYPE svg PUBLIC "-//W3C//DTD SVG 1.1//EN" "http://www.w3.org/Graphics/SVG/1.1/DTD/svg11.dtd">
<svg version="1.1" id="Capa_1" xmlns="http://www.w3.org/2000/svg" xmlns:xlink="http://www.w3.org/1999/xlink" x="0px" y="0px"
	 width="435.314px" height="435.314px" viewBox="0 0 435.314 435.314" style="enable-background:new 0 0 435.314 435.314;"
	 xml:space="preserve">
<g>
	<g>
		<path d="M248.687,360.33l4.643-36.956c0.12-0.953-0.115-1.915-0.658-2.706l-18.787-27.315c-0.899-1.308-2.501-1.941-4.054-1.605
			l-40.635,8.798c-1.284,0.278-2.342,1.181-2.818,2.405l-15.471,39.719c-0.679,1.739-0.03,3.717,1.545,4.722l30.545,19.438
			c0.63,0.4,1.359,0.611,2.102,0.611c0.12,0,0.24-0.005,0.362-0.018l39.706-3.685C246.993,363.568,248.458,362.15,248.687,360.33z"
			/>
		<path d="M194.512,376.915c-0.221-0.935-0.778-1.754-1.563-2.306l-27.154-19.019c-1.301-0.91-3.022-0.945-4.359-0.087
			l-34.993,22.456c-1.104,0.71-1.781,1.926-1.799,3.239l-0.601,42.62c-0.026,1.868,1.273,3.494,3.1,3.883l35.415,7.527
			c0.27,0.057,0.541,0.085,0.813,0.085c0.586,0,1.168-0.132,1.702-0.39l35.91-17.342c1.653-0.798,2.528-2.639,2.106-4.425
			L194.512,376.915z"/>
		<path d="M263.809,373.319c-0.812-1.062-2.11-1.635-3.44-1.521l-51.268,4.402c-1.122,0.097-2.147,0.671-2.816,1.576
			c-0.667,0.906-0.913,2.054-0.674,3.154l8.218,37.861c0.281,1.293,1.194,2.355,2.431,2.828l35.216,13.437
			c0.452,0.173,0.926,0.257,1.396,0.257c0.834,0,1.661-0.268,2.348-0.781l19.835-14.873c0.649-0.488,1.133-1.166,1.38-1.94
			l5.675-17.764c0.391-1.22,0.159-2.555-0.62-3.572L263.809,373.319z"/>
		<path d="M329.318,178.072c-14.563-28.463-38.704-56.282-71.75-82.684c-25.841-20.646-35.9-44.5-39.791-60.877
			c-4.23-17.812-2.302-30.923-2.282-31.049c0.154-0.986-0.193-1.985-0.926-2.663c-0.732-0.679-1.756-0.946-2.726-0.72
			c-1.425,0.335-35.083,8.505-50.646,34.023c-17.104,28.042-19.132,62.666-5.811,95.833c-6.972-1.504-13.742-2.265-20.195-2.265
			c-17.004,0-31.858,5.203-44.149,15.465c-0.764,0.638-1.162,1.613-1.062,2.604c0.1,0.99,0.684,1.866,1.56,2.339
			c11.561,6.24,27.395,14.787,30.837,26.923c1.715,6.049,0.421,12.68-3.958,20.271c-21.778,37.76-28.386,70.492-19.638,97.289
			c9.341,28.613,33.759,42.061,43.824,46.514c0.389,0.172,0.802,0.256,1.213,0.256c0.007,0,0.012,0,0.021,0c1.657,0,3-1.343,3-3
			c0-0.238-0.028-0.469-0.08-0.691c-4.556-39.77,11.323-57.703,25.337-73.528c12.34-13.937,23.15-26.146,14.74-48.659
			c25.518,13.205,35.592,46.313,35.848,65.654c0.012,0.869,0.4,1.691,1.065,2.253s1.542,0.807,2.4,0.67
			c23.545-3.706,30.763-19.889,32.916-27.951c13.067,10.112,30.733,45.719,18.087,81.666c-0.401,1.14-0.079,2.409,0.816,3.22
			c0.563,0.51,1.284,0.776,2.015,0.776c0.431,0,0.865-0.093,1.271-0.283c35.183-16.469,58.85-48.731,63.31-86.302
			C347.46,228.765,342.33,203.503,329.318,178.072z"/>
	</g>
</g>
<g>
</g>
<g>
</g>
<g>
</g>
<g>
</g>
<g>
</g>
<g>
</g>
<g>
</g>
<g>
</g>
<g>
</g>
<g>
</g>
<g>
</g>
<g>
</g>
<g>
</g>
<g>
</g>
<g>
</g>
</svg>
