<?xml version="1.0" encoding="iso-8859-1"?>
<!-- Generator: Adobe Illustrator 16.0.0, SVG Export Plug-In . SVG Version: 6.00 Build 0)  -->
<!DOCTYPE svg PUBLIC "-//W3C//DTD SVG 1.1//EN" "http://www.w3.org/Graphics/SVG/1.1/DTD/svg11.dtd">
<svg version="1.1" id="Capa_1" xmlns="http://www.w3.org/2000/svg" xmlns:xlink="http://www.w3.org/1999/xlink" x="0px" y="0px"
	 width="431.113px" height="431.113px" viewBox="0 0 431.113 431.113" style="enable-background:new 0 0 431.113 431.113;"
	 xml:space="preserve">
<g>
	<path d="M409.067,58.153c-4.865-4.863-11.461-7.594-18.34-7.593l-265.271,0.031V34.387h1.254c4.128,0,7.47-3.345,7.47-7.47V7.471
		c0-4.125-3.342-7.471-7.47-7.471h-76.08c-4.125,0-7.47,3.346-7.47,7.471v19.447c0,4.125,3.345,7.47,7.47,7.47h1.255v16.203h-24.47
		c-7.159,0-12.966,5.804-12.966,12.965v354.592c0,7.16,5.807,12.965,12.966,12.965h287.866c4.914,0,8.9-2.773,11.387-6.762
		l85.654-128.699c2.828-4.256,4.34-9.251,4.34-14.362V76.491C416.663,69.613,413.933,63.016,409.067,58.153z M276.093,321.461
		c6.662,6.663,6.662,17.465,0,24.129c-3.334,3.33-7.699,4.995-12.068,4.995c-4.366,0-8.732-1.665-12.064-4.995l-80.609-80.611
		L90.742,345.59c-3.33,3.33-7.698,4.995-12.064,4.995c-4.365,0-8.734-1.665-12.064-4.995c-6.662-6.664-6.662-17.467,0-24.129
		l80.611-80.611L66.614,160.24c-6.662-6.662-6.662-17.466,0-24.128c6.664-6.662,17.467-6.662,24.129,0l80.609,80.61l80.609-80.61
		c6.662-6.662,17.47-6.662,24.134,0c6.662,6.663,6.662,17.466,0,24.128l-80.616,80.609L276.093,321.461z M364.802,273.453
		l-36.553,54.948v-225.97l36.553-0.004V273.453z"/>
</g>
<g>
</g>
<g>
</g>
<g>
</g>
<g>
</g>
<g>
</g>
<g>
</g>
<g>
</g>
<g>
</g>
<g>
</g>
<g>
</g>
<g>
</g>
<g>
</g>
<g>
</g>
<g>
</g>
<g>
</g>
</svg>
