<?xml version="1.0" encoding="iso-8859-1"?>
<!-- Generator: Adobe Illustrator 16.0.0, SVG Export Plug-In . SVG Version: 6.00 Build 0)  -->
<!DOCTYPE svg PUBLIC "-//W3C//DTD SVG 1.1//EN" "http://www.w3.org/Graphics/SVG/1.1/DTD/svg11.dtd">
<svg version="1.1" id="Capa_1" xmlns="http://www.w3.org/2000/svg" xmlns:xlink="http://www.w3.org/1999/xlink" x="0px" y="0px"
	 width="467.308px" height="467.307px" viewBox="0 0 467.308 467.307" style="enable-background:new 0 0 467.308 467.307;"
	 xml:space="preserve">
<g>
	<g>
		<path d="M434.662,90.759l-2.894-29.139c-0.27-2.703-2.648-4.69-5.355-4.491L279.921,68.285c-3.24,0.259-6.399,1.282-9.14,2.958
			L78.768,188.774c-1.547,0.958-2.987,2.161-4.167,3.477L8.806,265.644c-6.175,6.934-9.355,16.188-8.728,25.392l7.817,114.497
			c0.179,2.623,2.359,4.659,4.988,4.659h64.66c2.629,0,4.811-2.036,4.988-4.659l6.828-100.01l9.65-16.475l83.153,22.134
			c2.479,0.66,5.056,0.994,7.657,0.994c5.278,0,10.46-1.369,14.977-3.957l115.157-66c11.541-6.614,17.39-20.259,14.218-33.179
			l-24.546-98.025l120.666-14.798C432.991,95.886,434.931,93.463,434.662,90.759z M173.753,246.853l-39.647-10.555l68.991-53.999
			L173.753,246.853z M212.167,234.84l42.082-92.577l1.474-1.153l14.797,60.287L212.167,234.84z"/>
		<path d="M430.482,106.19c0,0-36.825,39.503-36.825,59.841s16.486,36.826,36.825,36.826c20.337,0,36.825-16.487,36.825-36.826
			C467.308,145.694,430.482,106.19,430.482,106.19z"/>
	</g>
</g>
<g>
</g>
<g>
</g>
<g>
</g>
<g>
</g>
<g>
</g>
<g>
</g>
<g>
</g>
<g>
</g>
<g>
</g>
<g>
</g>
<g>
</g>
<g>
</g>
<g>
</g>
<g>
</g>
<g>
</g>
</svg>
