<?xml version="1.0" encoding="iso-8859-1"?>
<!-- Generator: Adobe Illustrator 16.0.0, SVG Export Plug-In . SVG Version: 6.00 Build 0)  -->
<!DOCTYPE svg PUBLIC "-//W3C//DTD SVG 1.1//EN" "http://www.w3.org/Graphics/SVG/1.1/DTD/svg11.dtd">
<svg version="1.1" id="Capa_1" xmlns="http://www.w3.org/2000/svg" xmlns:xlink="http://www.w3.org/1999/xlink" x="0px" y="0px"
	 width="399.095px" height="399.095px" viewBox="0 0 399.095 399.095" style="enable-background:new 0 0 399.095 399.095;"
	 xml:space="preserve">
<g>
	<g>
		<path d="M395.829,83.221l-32.381-13.26l0.034-55.104c0-2.12-1.719-3.838-3.836-3.838h-56.028c-2.119,0-3.838,1.718-3.838,3.838
			v29.334L216.934,5.027c-0.041-0.02-0.082-0.037-0.123-0.057l-0.252-0.109c-0.043-0.02-0.086-0.037-0.127-0.055
			c-5.346-2.189-11.027-3.301-16.885-3.301c-5.855,0-11.537,1.111-16.883,3.301c-0.034,0.014-0.068,0.027-0.102,0.043L3.164,82.749
			C1.242,83.583,0,85.478,0,87.571v55.691c0,1.697,0.818,3.289,2.199,4.277c1.377,0.986,3.151,1.248,4.756,0.699l192.593-83.136
			l192.592,83.141c0.554,0.189,1.127,0.281,1.697,0.281c1.083,0,2.156-0.334,3.059-0.982c1.381-0.986,2.199-2.58,2.199-4.275v-55.18
			C399.095,85.951,397.806,84.027,395.829,83.221z"/>
		<path d="M360.679,348.078h-14.093V153.123L199.548,89.164L52.511,153.123v194.955H38.417c-15.409,0-27.899,11.086-27.899,24.756
			c0,13.672,12.49,24.756,27.899,24.756h234.462c-0.195-0.871-0.372-1.746-0.579-2.617c-2.148-9.043-4.826-17.979-7.879-26.815
			c-0.434-1.257-0.859-2.365-1.285-3.626c-0.174-0.516-0.891-0.381-1.364-0.397c-0.656-0.023-1.318-0.055-1.976-0.084
			c-2.684-0.123-5.369-0.291-8.043-0.504c-5.097-0.4-10.17-0.965-15.209-1.709c-9.156-1.353-18.203-3.289-27.013-5.889
			c-14.798-4.367-28.886-10.63-41.52-18.76c-10.025-6.457-19.112-14.063-26.943-22.578c-12.109-13.168-21.189-28.463-26.916-44.668
			c-5.932-16.797-8.287-34.588-6.799-52.142c0.374-4.412,0.992-8.803,1.855-13.158c0.386-1.967,0.743-3.854,2.146-5.479
			c1.238-1.434,3.012-2.473,4.986-2.918c2.258-0.508,4.781-0.244,7.084-0.203c2.658,0.047,5.318,0.133,7.975,0.256
			c5.209,0.25,10.408,0.646,15.583,1.209c19.504,2.115,38.747,6.559,56.655,13.793c16.701,6.746,32.19,15.93,45.22,27.426
			c12.666,11.174,22.854,24.449,30.075,38.939c3.725,7.469,6.667,15.24,8.865,23.17c1.14,4.1,2.077,8.238,2.826,12.408
			c0.386,2.129,0.719,4.26,1.002,6.397c0.244,1.796-0.207,3.634-1.274,5.179c-2.382,3.44-10.187,5.211-12.927,1.475
			c-2.67-3.643-5.367-7.277-8.176-10.84c-10.346-13.121-21.642-25.746-34.328-37.154c-3.41-3.064-6.877-6.139-10.692-8.812
			c-3.541-2.479-7.332-4.674-11.224-6.703c-2.97-1.549-6.004-3.025-9.101-4.385c-1.52-0.666-2.021,0.002-0.746,0.967
			c4.223,3.197,8.33,6.483,12.252,9.994c16.158,14.479,28.953,31.59,39.585,49.578c7.532,12.75,14.194,25.864,20.209,39.231
			c2.893,6.424,5.932,12.785,8.605,19.287c2.728,6.625,5.209,13.334,7.335,20.133h69.531c15.409,0,27.899-11.084,27.899-24.756
			C388.578,359.164,376.088,348.078,360.679,348.078z"/>
	</g>
</g>
<g>
</g>
<g>
</g>
<g>
</g>
<g>
</g>
<g>
</g>
<g>
</g>
<g>
</g>
<g>
</g>
<g>
</g>
<g>
</g>
<g>
</g>
<g>
</g>
<g>
</g>
<g>
</g>
<g>
</g>
</svg>
