<?xml version="1.0" encoding="iso-8859-1"?>
<!-- Generator: Adobe Illustrator 16.0.0, SVG Export Plug-In . SVG Version: 6.00 Build 0)  -->
<!DOCTYPE svg PUBLIC "-//W3C//DTD SVG 1.1//EN" "http://www.w3.org/Graphics/SVG/1.1/DTD/svg11.dtd">
<svg version="1.1" id="Capa_1" xmlns="http://www.w3.org/2000/svg" xmlns:xlink="http://www.w3.org/1999/xlink" x="0px" y="0px"
	 width="433.379px" height="433.378px" viewBox="0 0 433.379 433.378" style="enable-background:new 0 0 433.379 433.378;"
	 xml:space="preserve">
<g>
	<g>
		<path d="M297.517,305.343c14.343-18.139,22.173-40.562,22.173-63.835c0-3.306-2.681-5.988-5.987-5.988h-17.414v-5.258
			c6.817-6.383,9.539-16.462,6.106-25.776c-4.572-12.413-18.341-18.765-30.755-14.194l-7.584,2.796
			c-9.415,3.469-15.671,12.439-15.671,22.474v19.958h-55.887v-35.137l107.143-30.444c12.724-3.615,20.107-16.861,16.493-29.585
			c-3.615-12.724-16.862-20.106-29.586-16.493l-150.895,42.873c-11.496,3.267-18.825,14.509-17.176,26.344
			c1.648,11.837,11.771,20.646,23.722,20.646h2.396v21.794h-24.919c-3.307,0-5.987,2.683-5.987,5.988
			c0,23.245,7.813,45.644,22.123,63.771c-5.584,5.198-8.863,12.527-8.863,20.367c0,7.443,3.045,14.508,8.171,19.661
			c-5.173,5.126-8.171,12.137-8.171,19.725c0,15.367,12.501,27.868,27.867,27.868h8.599c6.528,23.734,28.158,40.479,53.215,40.479
			c25.059,0,46.688-16.745,53.216-40.479h8.597c15.367,0,27.868-12.501,27.868-27.868c0-7.588-2.998-14.599-8.171-19.725
			c5.126-5.153,8.171-12.217,8.171-19.661C306.311,317.845,303.058,310.541,297.517,305.343z"/>
		<path d="M141.113,146.411c2.167,0,4.371-0.297,6.559-0.92l150.894-42.873c12.725-3.616,20.108-16.861,16.493-29.585
			c-3.614-12.725-16.862-20.107-29.586-16.494L134.58,99.413c-12.724,3.615-20.108,16.862-16.492,29.586
			C121.081,139.535,130.676,146.411,141.113,146.411z"/>
		<path d="M165.129,72.522c2.167,0,4.371-0.297,6.559-0.92l86.61-24.608c12.724-3.615,20.107-16.861,16.491-29.585
			c-3.613-12.723-16.86-20.105-29.585-16.493l-86.608,24.608c-12.725,3.615-20.108,16.862-16.493,29.586
			C145.097,65.646,154.693,72.522,165.129,72.522z"/>
	</g>
</g>
<g>
</g>
<g>
</g>
<g>
</g>
<g>
</g>
<g>
</g>
<g>
</g>
<g>
</g>
<g>
</g>
<g>
</g>
<g>
</g>
<g>
</g>
<g>
</g>
<g>
</g>
<g>
</g>
<g>
</g>
</svg>
