<?xml version="1.0" encoding="iso-8859-1"?>
<!-- Generator: Adobe Illustrator 16.0.0, SVG Export Plug-In . SVG Version: 6.00 Build 0)  -->
<!DOCTYPE svg PUBLIC "-//W3C//DTD SVG 1.1//EN" "http://www.w3.org/Graphics/SVG/1.1/DTD/svg11.dtd">
<svg version="1.1" id="Capa_1" xmlns="http://www.w3.org/2000/svg" xmlns:xlink="http://www.w3.org/1999/xlink" x="0px" y="0px"
	 width="438.939px" height="438.939px" viewBox="0 0 438.939 438.939" style="enable-background:new 0 0 438.939 438.939;"
	 xml:space="preserve">
<g>
	<g>
		<path d="M233.115,169.927c-1.194-1.391-2.852-2.256-4.324-2.256c-1.662,0-2.938,1.244-3.551,1.985
			c-1.423,1.726-3.543,2.725-5.779,2.725c-2.236,0-4.355-0.999-5.779-2.725c-0.612-0.741-1.888-1.985-3.55-1.985
			c-1.325,0-2.956,0.899-4.155,2.29c-0.651,0.756-2.117,2.791-1.756,5.427l15.241,86.767l15.244-86.779
			C235.089,172.693,233.877,170.813,233.115,169.927z"/>
		<path d="M219.47,89.551c-41.294,0-74.888,31.366-74.888,69.922c0,28.742,10.846,44.642,23.404,63.051
			c10.456,15.318,23.119,33.873,26.954,58.288l12.582,0.003l-18.083-102.946c-0.011-0.063-0.022-0.124-0.031-0.187
			c-0.928-6.2,0.972-12.58,5.212-17.504c4.104-4.764,9.757-7.496,15.511-7.496c3.262,0,6.46,0.886,9.33,2.529
			c2.87-1.644,6.068-2.529,9.33-2.529c5.805,0,11.672,2.795,15.693,7.477c4.157,4.839,5.989,11.233,5.027,17.543
			c-0.008,0.056-0.019,0.111-0.027,0.167L231.4,280.822l12.66,0.004c3.832-24.397,16.47-42.943,26.902-58.254
			c12.56-18.428,23.396-34.328,23.396-63.1C294.358,120.917,260.765,89.551,219.47,89.551z"/>
		<path d="M436.77,223.826c-29.027-22.826-31.932-42.632-10.716-73.076c0.921-1.322,1.149-3.007,0.612-4.525
			c-0.537-1.519-1.772-2.686-3.319-3.135c-17.923-5.208-28.877-12.172-34.472-21.919c-5.604-9.761-6.066-22.719-1.457-40.78
			c0.401-1.576,0.013-3.248-1.043-4.484c-1.057-1.236-2.646-1.88-4.268-1.73c-3.688,0.345-7.2,0.52-10.438,0.52
			c-28.279,0.001-41.267-13.204-44.826-45.579c-0.178-1.613-1.127-3.04-2.547-3.827c-1.419-0.787-3.133-0.835-4.595-0.13
			c-11.683,5.635-21.496,8.375-30.003,8.375c-15.731,0.001-27.857-9.528-39.317-30.898c-0.767-1.429-2.178-2.397-3.786-2.599
			c-1.605-0.201-3.214,0.39-4.31,1.586c-13.136,14.35-24.698,21.034-36.388,21.034c-10.519,0-22.021-5.596-35.163-17.108
			c-1.221-1.069-2.885-1.481-4.464-1.1c-1.579,0.38-2.875,1.502-3.475,3.01c-9.691,24.319-22.02,35.165-39.973,35.165
			c-7.439,0-15.957-1.754-26.039-5.362c-1.531-0.548-3.234-0.317-4.564,0.62s-2.121,2.462-2.121,4.089
			c0.013,36.382-13.508,50.056-49.888,50.45c-1.626,0.018-3.143,0.825-4.065,2.165c-0.922,1.34-1.135,3.045-0.57,4.57
			c6.478,17.494,7.386,30.461,2.856,40.809c-4.53,10.348-14.672,18.479-31.92,25.589c-1.492,0.614-2.595,1.912-2.963,3.483
			c-0.368,1.571,0.046,3.224,1.11,4.437c12.383,14.113,17.941,26.025,17.493,37.485c-0.448,11.464-6.924,22.896-20.378,35.982
			c-1.155,1.123-1.698,2.733-1.458,4.326c0.239,1.594,1.231,2.975,2.665,3.708c16.648,8.526,26.142,17.507,29.879,28.261
			c3.737,10.756,1.857,23.691-5.916,40.715c-0.674,1.477-0.59,3.188,0.226,4.59c0.815,1.402,2.261,2.322,3.877,2.467
			c18.475,1.65,30.421,6.354,37.597,14.798c7.177,8.447,9.881,20.992,8.509,39.479c-0.12,1.621,0.555,3.199,1.812,4.231
			c1.255,1.032,2.934,1.391,4.503,0.958c8.633-2.379,16.02-3.535,22.583-3.535c20.29,0,32.519,11.43,40.89,38.216
			c0.485,1.553,1.696,2.771,3.246,3.27c1.55,0.496,3.244,0.209,4.542-0.772c12.911-9.759,23.947-14.503,33.738-14.503
			c12.379,0,23.996,7.576,36.56,23.844c0.364,0.472,0.8,0.862,1.283,1.169c0.002,0.002,0.005,0.004,0.008,0.006
			c0.001,0,0.002,0.001,0.004,0.002c0.306,0.191,0.633,0.353,0.981,0.477c0.004,0.001,0.009,0.003,0.014,0.005
			c0.164,0.059,0.331,0.107,0.5,0.147c0.002,0.001,0.005,0.001,0.007,0.002c0.007,0.002,0.015,0.004,0.022,0.005l0,0
			c0.378,0.089,0.76,0.132,1.138,0.132c0.088,0,0.177-0.002,0.265-0.007c0.004,0,0.004,0,0.01-0.001
			c0.458-0.023,0.919-0.113,1.368-0.27c0.004-0.002,0.007-0.003,0.01-0.004s0.007-0.002,0.011-0.004c0,0,0.001,0,0.002-0.002
			c0.004-0.001,0.008-0.002,0.011-0.004h0.001c0.068-0.023,0.138-0.051,0.205-0.078c0,0,0,0,0.001,0
			c0.003-0.002,0.007-0.004,0.012-0.005h0.001c0.003-0.002,0.007-0.003,0.01-0.005c0.003-0.001,0.006-0.003,0.009-0.003
			c0.47-0.194,0.899-0.456,1.277-0.771c0.003-0.003,0.005-0.004,0.007-0.006c0.383-0.318,0.723-0.698,1.003-1.135
			c12.253-19.003,24.58-27.854,38.792-27.854c9.188,0,19.734,3.543,32.245,10.831c1.401,0.815,3.112,0.901,4.588,0.229
			c1.477-0.672,2.535-2.018,2.839-3.609c5.738-29.978,17.905-42.204,41.996-42.204c4.943,0,10.54,0.537,16.634,1.596
			c0.293,0.051,0.569,0.066,0.882,0.074c2.759-0.003,4.994-2.24,4.994-5c0-0.451-0.06-0.89-0.172-1.304
			c-3.114-18.086-1.646-30.779,4.609-39.928c6.306-9.223,17.743-15.229,35.991-18.9c1.589-0.319,2.924-1.391,3.583-2.87
			c0.657-1.481,0.558-3.188-0.27-4.583c-18.55-31.258-13.917-51.217,16.523-71.188c1.345-0.884,2.184-2.358,2.253-3.967
			C438.744,226.365,438.035,224.822,436.77,223.826z M291.275,236.392c-11.343,16.646-23.06,33.843-23.769,57.095
			c-0.176,5.739-4.27,10.453-9.665,11.623c4.991,1.561,8.613,6.221,8.613,11.727c0,4.872-2.844,9.068-6.956,11.056
			c4.112,1.985,6.956,6.183,6.956,11.056c0,6.783-5.499,12.283-12.282,12.283h-7.509c-2.319,12.919-13.607,22.726-27.194,22.726
			c-13.586,0-24.875-9.807-27.194-22.726h-7.508c-6.784,0-12.283-5.5-12.283-12.283c0-4.873,2.844-9.069,6.956-11.056
			c-4.112-1.985-6.956-6.184-6.956-11.056c0-5.53,3.655-10.204,8.681-11.745c-5.4-1.169-9.497-5.883-9.671-11.624
			c-0.708-23.262-12.445-40.457-23.795-57.088c-13.614-19.956-27.685-40.581-27.685-76.905c0-52.103,44.616-94.49,99.456-94.49
			c54.84,0,99.457,42.388,99.457,94.49C318.927,195.821,304.87,216.446,291.275,236.392z"/>
	</g>
</g>
<g>
</g>
<g>
</g>
<g>
</g>
<g>
</g>
<g>
</g>
<g>
</g>
<g>
</g>
<g>
</g>
<g>
</g>
<g>
</g>
<g>
</g>
<g>
</g>
<g>
</g>
<g>
</g>
<g>
</g>
</svg>
