<?xml version="1.0" encoding="iso-8859-1"?>
<!-- Generator: Adobe Illustrator 16.0.0, SVG Export Plug-In . SVG Version: 6.00 Build 0)  -->
<!DOCTYPE svg PUBLIC "-//W3C//DTD SVG 1.1//EN" "http://www.w3.org/Graphics/SVG/1.1/DTD/svg11.dtd">
<svg version="1.1" id="Capa_1" xmlns="http://www.w3.org/2000/svg" xmlns:xlink="http://www.w3.org/1999/xlink" x="0px" y="0px"
	 width="438.352px" height="438.352px" viewBox="0 0 438.352 438.352" style="enable-background:new 0 0 438.352 438.352;"
	 xml:space="preserve">
<g>
	<g>
		<path d="M369.787,57.421c-0.222-0.419-0.55-0.773-0.951-1.026l-24.479-15.409c-1.116-0.705-2.575-0.503-3.461,0.475l-5.475,6.042
			l-5.426-18.358c-0.164-0.556-0.502-1.046-0.968-1.396L298.096,4.293c-0.777-0.592-1.813-0.719-2.717-0.332L266.91,16.179
			l-32.363,5.248L206.545,7.755c-0.117-0.056-0.234-0.105-0.357-0.144l-23.115-7.479c-0.832-0.271-1.75-0.12-2.455,0.404
			l-20.316,15.071l-26.246-0.875c-0.584-0.017-1.164,0.151-1.646,0.488l-28.554,19.944c-0.732,0.509-1.166,1.342-1.166,2.229v8.919
			L83.96,61.813c-0.072,0.063-0.143,0.126-0.211,0.196l-38.297,39.606l347.908,0.225L369.787,57.421z"/>
		<path d="M405.84,121.761H32.514c-5.045,0-9.137,4.09-9.137,9.135v93.893c0,1.068,0.188,2.129,0.555,3.133l35.453,97.123
			c1.316,3.605,4.744,6.004,8.58,6.004h302.422c3.838,0,7.266-2.398,8.582-6.004l35.451-97.123c0.367-1.004,0.555-2.064,0.555-3.133
			v-93.893C414.975,125.851,410.885,121.761,405.84,121.761z M351.859,249.243c0,2.522-2.045,4.567-4.565,4.567H91.061
			c-2.523,0-4.568-2.045-4.568-4.567v-18.271c0-2.522,2.045-4.567,4.568-4.567h256.232c2.521,0,4.565,2.045,4.565,4.567
			L351.859,249.243L351.859,249.243z M351.859,180.225c0,2.522-2.045,4.567-4.565,4.567H91.061c-2.523,0-4.568-2.045-4.568-4.567
			v-18.271c0-2.522,2.045-4.568,4.568-4.568h256.232c2.521,0,4.565,2.045,4.565,4.568L351.859,180.225L351.859,180.225z"/>
		<path d="M391.377,354.002H46.975c-7.568,0-13.703,6.135-13.703,13.703c0,7.566,6.135,13.703,13.703,13.703h20.793
			c-2.678,5.311-4.197,11.309-4.197,17.66c0,21.695,17.588,39.283,39.283,39.283c21.693,0,39.281-17.588,39.281-39.283
			c0-6.354-1.518-12.35-4.197-17.66h32.138v24.373c0,2.521,2.045,4.566,4.568,4.566h89.064c2.522,0,4.565-2.045,4.565-4.566v-24.373
			h32.14c-2.679,5.311-4.197,11.309-4.197,17.66c0,21.695,17.588,39.283,39.283,39.283c21.692,0,39.28-17.588,39.28-39.283
			c0-6.354-1.518-12.35-4.196-17.66h20.793c7.567,0,13.703-6.137,13.703-13.703C405.08,360.137,398.945,354.002,391.377,354.002z"/>
	</g>
</g>
<g>
</g>
<g>
</g>
<g>
</g>
<g>
</g>
<g>
</g>
<g>
</g>
<g>
</g>
<g>
</g>
<g>
</g>
<g>
</g>
<g>
</g>
<g>
</g>
<g>
</g>
<g>
</g>
<g>
</g>
</svg>
