<?xml version="1.0" encoding="iso-8859-1"?>
<!-- Generator: Adobe Illustrator 16.0.0, SVG Export Plug-In . SVG Version: 6.00 Build 0)  -->
<!DOCTYPE svg PUBLIC "-//W3C//DTD SVG 1.1//EN" "http://www.w3.org/Graphics/SVG/1.1/DTD/svg11.dtd">
<svg version="1.1" id="Capa_1" xmlns="http://www.w3.org/2000/svg" xmlns:xlink="http://www.w3.org/1999/xlink" x="0px" y="0px"
	 width="483.049px" height="483.049px" viewBox="0 0 483.049 483.049" style="enable-background:new 0 0 483.049 483.049;"
	 xml:space="preserve">
<g>
	<g>
		<path d="M402.496,252.143c0.009-0.959-0.369-1.883-1.045-2.563c-0.676-0.683-1.596-1.065-2.555-1.065H290.626
			c-0.961,0-1.881,0.385-2.558,1.065c-0.676,0.681-1.051,1.604-1.043,2.563c0.564,67.559-5.828,132.395-19.02,193.232
			c-20.502-88.605-30.48-183.592-29.668-282.884c0.012-1.333-0.51-2.616-1.449-3.562c-0.939-0.947-2.217-1.479-3.551-1.479h-150.4
			c-1.332,0-2.611,0.533-3.549,1.479c-0.939,0.947-1.461,2.229-1.451,3.563c0.926,111.03-11.668,216.768-37.434,314.28
			c-0.396,1.5-0.074,3.098,0.873,4.328c0.947,1.229,2.41,1.949,3.961,1.949l380.625-0.041c0.006,0,0.012,0,0.012,0
			c1.99,0,3.602-1.611,3.602-3.602c0-0.432-0.076-0.846-0.215-1.23C410.879,408.129,401.842,332.018,402.496,252.143z"/>
		<path d="M78.428,136.348c-0.617,5.488,3.33,10.438,8.818,11.056c5.492,0.619,10.438-3.33,11.057-8.818
			c0.5-4.444,2.078-8.767,4.564-12.501c2.498-3.751,2.18-8.71-0.781-12.109c-2.555-2.937-3.963-6.695-3.963-10.583
			c0-6.606,3.959-12.478,10.088-14.96c4.811-1.949,7.332-7.255,5.801-12.216c-0.623-2.023-0.939-4.134-0.939-6.274
			c0-11.721,9.535-21.257,21.256-21.257c1.682,0,3.375,0.204,5.031,0.605c5.291,1.283,10.633-1.903,12.023-7.165
			c3.441-13.026,15.266-22.123,28.756-22.123c11.596,0,22.213,6.823,27.049,17.382c1.209,2.64,3.506,4.624,6.293,5.437
			c2.785,0.813,5.789,0.374,8.229-1.202c3.324-2.149,7.178-3.286,11.145-3.286c9.094,0,17.218,6.094,19.753,14.82
			c1.484,5.107,6.705,8.158,11.888,6.944c0.998-0.234,2.012-0.354,3.014-0.354c7.225,0,13.104,5.878,13.104,13.104
			c0,4.961-2.756,9.442-7.192,11.692c-3.642,1.846-5.793,5.718-5.439,9.783c0.037,0.422,0.056,0.786,0.056,1.114
			c0,6.942-5.648,12.589-12.591,12.589c-2.184,0-4.252-0.54-6.146-1.604c-4.434-2.489-10.027-1.255-13.002,2.866
			c-3.795,5.255-9.354,8.84-15.652,10.096c-3.852,0.768-6.896,3.718-7.785,7.543c-0.461,1.979-1.199,3.898-2.197,5.706
			c-2.67,4.835-0.914,10.918,3.922,13.588c1.531,0.846,3.189,1.247,4.824,1.247c3.523,0,6.939-1.866,8.764-5.169
			c0.877-1.59,1.648-3.229,2.313-4.906c6.32-2.179,12.064-5.724,16.854-10.395c2.639,0.678,5.365,1.026,8.106,1.026
			c16.773,0,30.63-12.739,32.398-29.051c8-6.198,12.77-15.744,12.77-26.128c0-17.881-14.254-32.496-31.993-33.084
			c-6.963-12.935-20.688-21.43-35.764-21.43c-4.316,0-8.564,0.682-12.609,2.006C210.988,7.74,196.123,0,180.145,0
			c-19.559,0-37.025,11.442-45.078,28.689c-23.041-0.395-41.988,18.257-41.988,41.25c0,1.347,0.064,2.689,0.193,4.022
			c-9.402,6.676-15.148,17.521-15.148,29.431c0,6.247,1.619,12.343,4.646,17.717C80.501,125.909,79.022,131.077,78.428,136.348z"/>
		<path d="M419.975,163.84c-5.463-8.795-15.234-14.472-25.912-14.472c-2.445,0-4.863,0.292-7.209,0.863
			c-6.857-8.179-17.104-13.128-28.064-13.128c-13.666,0-25.944,7.595-32.219,19.231c-16.32,0.819-29.348,14.354-29.348,30.875
			c0,0.38,0.008,0.759,0.021,1.138c-6.258,5.124-10.022,12.834-10.022,21.245c0,4.178,0.951,8.267,2.746,11.972
			c-1.291,3.099-2.146,6.376-2.521,9.709c-0.616,5.488,3.33,10.438,8.818,11.056c5.49,0.614,10.438-3.33,11.057-8.818
			c0.275-2.453,1.146-4.839,2.521-6.901c2.498-3.751,2.178-8.709-0.781-12.109c-0.838-0.963-1.838-2.597-1.838-4.908
			c0-3.065,1.838-5.791,4.684-6.943c4.813-1.949,7.332-7.258,5.801-12.22c-0.319-1.034-0.481-2.117-0.481-3.22
			c0-6.018,4.896-10.914,10.914-10.914c0.864,0,1.733,0.104,2.586,0.311c5.297,1.281,10.635-1.901,12.024-7.164
			c1.92-7.266,8.517-12.34,16.041-12.34c6.472,0,12.394,3.807,15.093,9.699c1.207,2.64,3.504,4.624,6.291,5.437
			c2.786,0.813,5.789,0.375,8.229-1.202c1.689-1.092,3.646-1.669,5.662-1.669c4.623,0,8.752,3.097,10.041,7.532
			c1.484,5.107,6.713,8.157,11.885,6.944c3.484-0.814,6.721,1.884,6.721,5.309c0,2.47-1.551,4.137-3.002,4.873
			c-3.641,1.846-5.793,5.72-5.438,9.787c0.012,0.15,0.023,0.302,0.023,0.456c0,2.82-2.296,5.115-5.115,5.115
			c-0.888,0-1.728-0.218-2.492-0.649c-4.432-2.488-10.027-1.256-13.004,2.866c-2.047,2.836-5.045,4.771-8.437,5.447
			c-3.852,0.768-6.897,3.718-7.786,7.543c-0.238,1.026-0.623,2.025-1.146,2.968c-2.668,4.835-0.912,10.918,3.922,13.587
			c1.533,0.846,3.189,1.246,4.824,1.246c3.522,0,6.941-1.866,8.764-5.168c0.412-0.744,0.791-1.502,1.142-2.274
			c3.575-1.415,6.875-3.43,9.768-5.964c1.463,0.263,2.951,0.397,4.445,0.397c12.451,0,22.813-9.107,24.778-21.011
			c5.507-4.765,8.753-11.706,8.753-19.219C442.709,176.037,432.736,165.204,419.975,163.84z"/>
	</g>
</g>
<g>
</g>
<g>
</g>
<g>
</g>
<g>
</g>
<g>
</g>
<g>
</g>
<g>
</g>
<g>
</g>
<g>
</g>
<g>
</g>
<g>
</g>
<g>
</g>
<g>
</g>
<g>
</g>
<g>
</g>
</svg>
