<?xml version="1.0" encoding="iso-8859-1"?>
<!-- Generator: Adobe Illustrator 16.0.0, SVG Export Plug-In . SVG Version: 6.00 Build 0)  -->
<!DOCTYPE svg PUBLIC "-//W3C//DTD SVG 1.1//EN" "http://www.w3.org/Graphics/SVG/1.1/DTD/svg11.dtd">
<svg version="1.1" id="Capa_1" xmlns="http://www.w3.org/2000/svg" xmlns:xlink="http://www.w3.org/1999/xlink" x="0px" y="0px"
	 width="477.221px" height="477.221px" viewBox="0 0 477.221 477.221" style="enable-background:new 0 0 477.221 477.221;"
	 xml:space="preserve">
<g>
	<g>
		<path d="M224.307,117.403c23.161,0,39.701,9.424,39.859,9.515c0.647,0.378,1.399,0.55,2.074,0.555
			c2.242-0.005,4.059-1.824,4.059-4.066c0-0.806-0.233-1.557-0.638-2.188c-2.774-5.258-33.139-61.057-81.515-80.213
			c-8.207-3.249-16.255-4.896-23.923-4.896c-30.208,0-45.255,24.702-49.147,32.273c-6.93,13.479-6.43,28.536,1.368,41.313
			c8.818,14.448,25.311,23.425,43.042,23.423c8.783-0.001,17.487-2.137,25.871-6.351
			C197.723,120.553,210.827,117.403,224.307,117.403z"/>
		<path d="M364.371,74.126c-2.11-4.106-10.271-17.504-26.656-17.504c-4.157,0-8.523,0.895-12.976,2.656
			c-26.96,10.675-43.606,42.334-44.302,43.677c-0.451,0.872-0.272,1.938,0.438,2.612c0.712,0.677,1.783,0.801,2.631,0.308
			c0.089-0.053,8.99-5.161,21.62-5.161c7.312,0,14.419,1.708,21.126,5.079c4.547,2.285,9.269,3.444,14.031,3.444
			c9.616,0,18.562-4.867,23.346-12.705C367.859,89.602,368.128,81.435,364.371,74.126z"/>
		<path d="M272.847,88.636c0.235,0,0.474-0.037,0.704-0.116c0.931-0.313,1.541-1.203,1.499-2.185
			c-0.009-0.229-0.742-23.134,19.882-37.839c10.771-7.681,15.343-20.249,11.646-32.02C303.42,6.425,295.045,0.114,284.719,0.002
			L284.332,0c-13.621,0-28.983,7.388-31.243,28.12c-3.144,28.826,17.085,58.325,17.947,59.567
			C271.456,88.294,272.139,88.636,272.847,88.636z"/>
		<path d="M348.863,440.354h-11.112L295.64,148.718c-0.763-5.28-5.286-9.198-10.62-9.198h-38.632c-5.334,0-9.858,3.918-10.62,9.198
			l-42.112,291.636h-11.112c-3.95,0-7.153,3.203-7.153,7.154v22.559c0,3.951,3.203,7.154,7.153,7.154h166.32
			c3.95,0,7.153-3.203,7.153-7.154v-22.559C356.018,443.557,352.814,440.354,348.863,440.354z M294.742,292.673l10.507,72.769
			l-56.613-43.455L294.742,292.673z M289.937,259.384l-34.393-25.655l27.35-23.115L289.937,259.384z M255.681,160.982h20.046
			l3.552,24.588l-30.922,26.134L255.681,160.982z M242.694,250.918l35.76,26.678l-43.617,27.73L242.694,250.918z M230.532,335.143
			l58.7,45.057l-72.826,52.768L230.532,335.143z M247.724,436.777l61.402-44.49l6.426,44.49H247.724z"/>
	</g>
</g>
<g>
</g>
<g>
</g>
<g>
</g>
<g>
</g>
<g>
</g>
<g>
</g>
<g>
</g>
<g>
</g>
<g>
</g>
<g>
</g>
<g>
</g>
<g>
</g>
<g>
</g>
<g>
</g>
<g>
</g>
</svg>
