<?xml version="1.0" encoding="iso-8859-1"?>
<!-- Generator: Adobe Illustrator 16.0.0, SVG Export Plug-In . SVG Version: 6.00 Build 0)  -->
<!DOCTYPE svg PUBLIC "-//W3C//DTD SVG 1.1//EN" "http://www.w3.org/Graphics/SVG/1.1/DTD/svg11.dtd">
<svg version="1.1" id="Capa_1" xmlns="http://www.w3.org/2000/svg" xmlns:xlink="http://www.w3.org/1999/xlink" x="0px" y="0px"
	 width="462.214px" height="462.214px" viewBox="0 0 462.214 462.214" style="enable-background:new 0 0 462.214 462.214;"
	 xml:space="preserve">
<g>
	<g>
		<path d="M191.816,46.136c3.602,1.942,8.533,4.606,9.607,8.388c0.533,1.885,0.131,3.951-1.234,6.314
			c-6.785,11.764-8.842,21.961-6.117,30.31c2.91,8.915,10.518,13.104,13.652,14.491c0.121,0.053,0.25,0.08,0.379,0.08
			c0,0,0.004,0,0.006,0c0.518,0,0.934-0.418,0.934-0.935c0-0.075-0.008-0.146-0.023-0.214c-1.42-12.391,3.527-17.979,7.893-22.908
			c3.846-4.344,7.213-8.146,4.594-15.159c7.949,4.114,11.088,14.428,11.168,20.454c0.004,0.27,0.123,0.526,0.333,0.701
			c0.207,0.175,0.479,0.25,0.748,0.209c7.334-1.154,9.582-6.196,10.254-8.709c4.07,3.15,9.576,14.244,5.635,25.444
			c-0.125,0.354-0.025,0.749,0.254,1.002c0.176,0.159,0.4,0.241,0.627,0.241c0.135,0,0.27-0.027,0.396-0.086
			c10.961-5.132,18.336-15.184,19.723-26.888c0.902-7.6-0.695-15.469-4.75-23.394c-4.535-8.865-12.057-17.532-22.352-25.758
			c-8.051-6.433-11.187-13.863-12.396-18.967c-1.318-5.55-0.717-9.633-0.709-9.674c0.047-0.309-0.063-0.618-0.291-0.829
			s-0.547-0.296-0.848-0.225c-0.445,0.104-10.932,2.649-15.779,10.601c-5.33,8.735-5.961,19.523-1.811,29.855
			c-2.172-0.469-4.281-0.705-6.291-0.705c-5.297,0-9.926,1.621-13.754,4.819c-0.24,0.198-0.361,0.501-0.332,0.81
			C191.36,45.713,191.543,45.989,191.816,46.136z"/>
		<path d="M316.08,424.541h-11.354l-43.031-297.998c-0.777-5.395-5.402-9.397-10.852-9.397h-39.475
			c-5.449,0-10.074,4.003-10.852,9.397l-43.03,297.998h-11.355c-4.035,0-7.309,3.273-7.309,7.312v23.051
			c0,4.038,3.273,7.311,7.309,7.311H316.08c4.037,0,7.312-3.271,7.312-7.311v-23.051
			C323.391,427.814,320.117,424.541,316.08,424.541z M260.779,273.638l10.736,74.354l-57.85-44.401L260.779,273.638z
			 M255.867,239.625l-35.141-26.216l27.945-23.62L255.867,239.625z M220.865,139.075h20.482l3.631,25.125l-31.598,26.703
			L220.865,139.075z M207.595,230.972l36.542,27.26l-44.568,28.337L207.595,230.972z M195.168,317.034l59.98,46.041l-74.414,53.916
			L195.168,317.034z M212.734,420.888l62.742-45.461l6.566,45.461H212.734z"/>
	</g>
</g>
<g>
</g>
<g>
</g>
<g>
</g>
<g>
</g>
<g>
</g>
<g>
</g>
<g>
</g>
<g>
</g>
<g>
</g>
<g>
</g>
<g>
</g>
<g>
</g>
<g>
</g>
<g>
</g>
<g>
</g>
</svg>
