<?xml version="1.0" encoding="iso-8859-1"?>
<!-- Generator: Adobe Illustrator 16.0.0, SVG Export Plug-In . SVG Version: 6.00 Build 0)  -->
<!DOCTYPE svg PUBLIC "-//W3C//DTD SVG 1.1//EN" "http://www.w3.org/Graphics/SVG/1.1/DTD/svg11.dtd">
<svg version="1.1" id="Capa_1" xmlns="http://www.w3.org/2000/svg" xmlns:xlink="http://www.w3.org/1999/xlink" x="0px" y="0px"
	 width="418.471px" height="418.471px" viewBox="0 0 418.471 418.471" style="enable-background:new 0 0 418.471 418.471;"
	 xml:space="preserve">
<g>
	<path d="M355.479,234.234c13.807,0,25-11.192,25-25s-11.193-25-25-25h-8.625V50h8.625c13.807,0,25-11.193,25-25s-11.193-25-25-25
		H62.992c-13.807,0-25,11.193-25,25s11.193,25,25,25l52.993-0.042c7.732,0,14,6.368,14,14.1c0,7.732-6.268,14-14,14H71.617v106.177
		h-8.625c-13.807,0-25,11.193-25,25s11.193,25,25,25l52.993-0.026c7.732,0,14,6.368,14,14.101c0,7.731-6.268,14-14,14H71.617
		v106.162h-8.625c-13.807,0-25,11.191-25,25c0,13.807,11.193,25,25,25h292.485c13.807,0,25-11.193,25-25c0-13.809-11.193-25-25-25
		h-8.625V234.234H355.479z M209.235,276.818c-28.439,0-51.492-23.055-51.492-51.494c0-28.438,51.492-83.673,51.492-83.673
		s51.492,55.237,51.492,83.673C260.728,253.765,237.672,276.818,209.235,276.818z"/>
</g>
<g>
</g>
<g>
</g>
<g>
</g>
<g>
</g>
<g>
</g>
<g>
</g>
<g>
</g>
<g>
</g>
<g>
</g>
<g>
</g>
<g>
</g>
<g>
</g>
<g>
</g>
<g>
</g>
<g>
</g>
</svg>
