<?xml version="1.0" encoding="iso-8859-1"?>
<!-- Generator: Adobe Illustrator 16.0.0, SVG Export Plug-In . SVG Version: 6.00 Build 0)  -->
<!DOCTYPE svg PUBLIC "-//W3C//DTD SVG 1.1//EN" "http://www.w3.org/Graphics/SVG/1.1/DTD/svg11.dtd">
<svg version="1.1" id="Capa_1" xmlns="http://www.w3.org/2000/svg" xmlns:xlink="http://www.w3.org/1999/xlink" x="0px" y="0px"
	 width="446.83px" height="446.831px" viewBox="0 0 446.83 446.831" style="enable-background:new 0 0 446.83 446.831;"
	 xml:space="preserve">
<g>
	<path d="M446.83,343.575H276.914c-2.319-12.828-13.534-22.562-27.029-22.562c-13.496,0-24.711,9.733-27.03,22.562h-78.603
		c-26.707,0-49.82-15.666-60.646-38.289c9.891-4.156,16.835-13.936,16.835-25.338c0-12.371-8.178-22.83-19.422-26.273
		c9.333-25.906,34.15-44.482,63.233-44.482h4.951v18.955c0,13.205,10.706,23.912,23.912,23.912h130.031
		c13.204,0,23.91-10.707,23.91-23.912v-18.955H446.83V154.24H327.057v-18.982c0-13.205-10.706-23.91-23.91-23.91h-37.119V92.982
		h48.626c15.406,0,27.896-12.488,27.896-27.896c0-15.404-12.49-27.893-27.896-27.893H260.92c-5.051-7.148-13.372-11.82-22.789-11.82
		s-17.739,4.672-22.79,11.82h-53.733c-15.407,0-27.897,12.488-27.897,27.893c0,15.408,12.49,27.896,27.897,27.896h48.626v18.365
		h-37.119c-13.206,0-23.912,10.705-23.912,23.91v18.982h-4.951c-59.229,0-108.74,42.381-119.821,98.405
		C10.69,254.162,0,265.803,0,279.949c0,14.715,11.565,26.725,26.101,27.442c13.758,52.381,61.512,91.138,118.151,91.138h78.537
		c2.169,13.008,13.471,22.928,27.096,22.928c13.624,0,24.925-9.92,27.095-22.928H446.83V343.575L446.83,343.575z"/>
</g>
<g>
</g>
<g>
</g>
<g>
</g>
<g>
</g>
<g>
</g>
<g>
</g>
<g>
</g>
<g>
</g>
<g>
</g>
<g>
</g>
<g>
</g>
<g>
</g>
<g>
</g>
<g>
</g>
<g>
</g>
</svg>
