<?xml version="1.0" encoding="iso-8859-1"?>
<!-- Generator: Adobe Illustrator 16.0.0, SVG Export Plug-In . SVG Version: 6.00 Build 0)  -->
<!DOCTYPE svg PUBLIC "-//W3C//DTD SVG 1.1//EN" "http://www.w3.org/Graphics/SVG/1.1/DTD/svg11.dtd">
<svg version="1.1" id="Capa_1" xmlns="http://www.w3.org/2000/svg" xmlns:xlink="http://www.w3.org/1999/xlink" x="0px" y="0px"
	 width="432.062px" height="432.062px" viewBox="0 0 432.062 432.062" style="enable-background:new 0 0 432.062 432.062;"
	 xml:space="preserve">
<g>
	<path d="M379.703,399.46c-10.738-13.103-23.979-25.719-39.854-32.245c-16.506-6.784-35.264-7.792-52.699-4.721
		c-18.031,3.175-35.172,9.959-53.168,13.249c-5.88,1.077-22.662,3.648-33.09-8.464c-8.528-10.648-6.992-30.702-5.91-44.865h73.478
		c3.014,0,5.455-2.441,5.455-5.453V191.507h29.455c3.012,0,5.453-2.442,5.453-5.454v-62.024c0-3.013-2.441-5.455-5.453-5.455H276.1
		V27.272C276.1,12.21,263.888,0,248.826,0c-15.062,0-27.271,12.21-27.271,27.272v91.301h-87.274V27.272
		C134.281,12.21,122.07,0,107.009,0C91.946,0,79.737,12.21,79.737,27.272v91.301H52.464c-3.013,0-5.454,2.442-5.454,5.455v62.024
		c0,3.012,2.441,5.454,5.454,5.454h29.454v125.453c0,3.012,2.442,5.454,5.455,5.454h69.608c0.003,1.546,0.003,3.054-0.025,4.489
		c-0.366,18.304-0.258,37.869,8.164,54.601c14.137,28.084,46.857,36.565,76.019,31.691c26.449-4.421,55.52-21.081,82.518-11.439
		c5.08,1.719,11.137,6.121,15.58,10.143c6.561,5.935,12.119,16.81,20.926,19.4c7.344,2.161,15.955-0.364,20.842-6.267
		C387.354,417.36,385.711,406.789,379.703,399.46z"/>
</g>
<g>
</g>
<g>
</g>
<g>
</g>
<g>
</g>
<g>
</g>
<g>
</g>
<g>
</g>
<g>
</g>
<g>
</g>
<g>
</g>
<g>
</g>
<g>
</g>
<g>
</g>
<g>
</g>
<g>
</g>
</svg>
