<?xml version="1.0" encoding="iso-8859-1"?>
<!-- Generator: Adobe Illustrator 16.0.0, SVG Export Plug-In . SVG Version: 6.00 Build 0)  -->
<!DOCTYPE svg PUBLIC "-//W3C//DTD SVG 1.1//EN" "http://www.w3.org/Graphics/SVG/1.1/DTD/svg11.dtd">
<svg version="1.1" id="Capa_1" xmlns="http://www.w3.org/2000/svg" xmlns:xlink="http://www.w3.org/1999/xlink" x="0px" y="0px"
	 width="462.316px" height="462.316px" viewBox="0 0 462.316 462.316" style="enable-background:new 0 0 462.316 462.316;"
	 xml:space="preserve">
<g>
	<path d="M355.89,100.237h-13.97V29.281C341.92,13.11,328.812,0,312.64,0c-16.174,0-29.279,13.11-29.279,29.281v70.957H178.958
		V29.281C178.958,13.11,165.85,0,149.677,0c-16.172,0-29.281,13.11-29.281,29.281v70.957h-13.969
		c-16.17,0-29.279,13.11-29.279,29.281c0,15.755,12.443,28.597,28.035,29.249v147.453c0,2.914,1.271,5.685,3.481,7.584
		l72.535,62.354v76.158c0,5.521,4.478,10,10,10h79.918c5.521,0,10-4.479,10-10v-76.158l72.535-62.355
		c2.21-1.898,3.48-4.668,3.48-7.582V158.767c15.593-0.652,28.035-13.494,28.035-29.249
		C385.169,113.347,372.06,100.237,355.89,100.237z M283.668,280.35h-105.02c-9.704,0-17.568-7.865-17.568-17.567
		c0-9.703,7.864-17.567,17.568-17.567h105.02c9.704,0,17.568,7.864,17.568,17.567C301.236,272.484,293.372,280.35,283.668,280.35z
		 M283.668,217.103h-105.02c-9.704,0-17.568-7.866-17.568-17.569s7.864-17.568,17.568-17.568h105.02
		c9.704,0,17.568,7.866,17.568,17.568C301.236,209.238,293.372,217.103,283.668,217.103z"/>
</g>
<g>
</g>
<g>
</g>
<g>
</g>
<g>
</g>
<g>
</g>
<g>
</g>
<g>
</g>
<g>
</g>
<g>
</g>
<g>
</g>
<g>
</g>
<g>
</g>
<g>
</g>
<g>
</g>
<g>
</g>
</svg>
