<?xml version="1.0" encoding="iso-8859-1"?>
<!-- Generator: Adobe Illustrator 16.0.0, SVG Export Plug-In . SVG Version: 6.00 Build 0)  -->
<!DOCTYPE svg PUBLIC "-//W3C//DTD SVG 1.1//EN" "http://www.w3.org/Graphics/SVG/1.1/DTD/svg11.dtd">
<svg version="1.1" id="Capa_1" xmlns="http://www.w3.org/2000/svg" xmlns:xlink="http://www.w3.org/1999/xlink" x="0px" y="0px"
	 width="400.554px" height="400.554px" viewBox="0 0 400.554 400.554" style="enable-background:new 0 0 400.554 400.554;"
	 xml:space="preserve">
<g>
	<g>
		<path d="M158.098,136.322c3.624-1.609,7.141-3.045,10.645-4.346l6.433,41.71c0.306,1.982,1.645,3.649,3.513,4.375
			c1.87,0.727,3.984,0.399,5.545-0.856L316.134,71.262c1.562-1.255,2.337-3.249,2.031-5.229c-0.305-1.98-1.644-3.648-3.512-4.374
			L156.961,0.381c-1.869-0.726-3.983-0.401-5.545,0.855c-1.562,1.255-2.337,3.249-2.031,5.23l6.955,45.094
			c-1.317,0.833-2.676,1.696-4.022,2.642c-5.096,3.573-10.491,7.672-16.979,12.897c-10.456,8.418-20.544,18.451-30.875,30.713
			c-9.33,11.296-17.687,23.415-24.841,36.017c-12.323,21.709-21.21,45.559-26.413,70.89c-1.886,9.184-3.843,20.056-4.057,31.058
			c-0.053,2.716,1.849,5.079,4.512,5.61c0.996,0.199,1.99,0.121,2.898-0.188c1.521-0.516,2.799-1.678,3.421-3.261
			c3.803-9.669,9.401-19.028,13.856-26.103c7.039-11.177,15.397-22.047,24.842-32.311
			C115.812,160.913,136.359,145.973,158.098,136.322z"/>
		<path d="M346.889,159.167c-0.995-0.199-1.99-0.12-2.898,0.188c-1.521,0.516-2.799,1.678-3.421,3.261
			c-3.802,9.669-9.401,19.028-13.855,26.102c-7.039,11.177-15.397,22.048-24.843,32.311c-17.131,18.612-37.678,33.551-59.416,43.202
			c-3.624,1.608-7.142,3.045-10.646,4.347l-6.433-41.711c-0.307-1.98-1.646-3.648-3.514-4.375c-1.87-0.727-3.983-0.4-5.545,0.856
			l-131.9,105.942c-1.563,1.256-2.336,3.248-2.031,5.229c0.305,1.981,1.644,3.649,3.512,4.375l157.692,61.276
			c1.868,0.727,3.982,0.401,5.544-0.854c1.562-1.256,2.337-3.249,2.032-5.23l-6.955-45.094c1.316-0.833,2.676-1.695,4.022-2.641
			c5.095-3.573,10.489-7.672,16.979-12.898c10.455-8.418,20.544-18.451,30.875-30.713c9.329-11.295,17.687-23.414,24.841-36.018
			c12.323-21.709,21.21-45.559,26.414-70.888c1.886-9.184,3.843-20.056,4.057-31.058
			C351.453,162.062,349.553,159.699,346.889,159.167z"/>
	</g>
</g>
<g>
</g>
<g>
</g>
<g>
</g>
<g>
</g>
<g>
</g>
<g>
</g>
<g>
</g>
<g>
</g>
<g>
</g>
<g>
</g>
<g>
</g>
<g>
</g>
<g>
</g>
<g>
</g>
<g>
</g>
</svg>
