<?xml version="1.0" encoding="iso-8859-1"?>
<!-- Generator: Adobe Illustrator 16.0.0, SVG Export Plug-In . SVG Version: 6.00 Build 0)  -->
<!DOCTYPE svg PUBLIC "-//W3C//DTD SVG 1.1//EN" "http://www.w3.org/Graphics/SVG/1.1/DTD/svg11.dtd">
<svg version="1.1" id="Capa_1" xmlns="http://www.w3.org/2000/svg" xmlns:xlink="http://www.w3.org/1999/xlink" x="0px" y="0px"
	 width="452.732px" height="452.731px" viewBox="0 0 452.732 452.731" style="enable-background:new 0 0 452.732 452.731;"
	 xml:space="preserve">
<g>
	<path d="M378.744,116.137c1.479-6.124,0.482-12.458-2.802-17.83c-4.318-7.069-11.846-11.29-20.135-11.29
		c-4.33,0-8.578,1.197-12.284,3.462l-7.475,4.567l-7.233-9.077c-2.83-3.545-6.547-6.313-10.747-8.001L128.993,1.904
		C125.852,0.641,122.553,0,119.185,0C108.39,0,98.811,6.471,94.779,16.488c-2.622,6.517-2.549,13.665,0.205,20.127
		c2.754,6.464,7.86,11.467,14.377,14.087l151.152,60.81H99.619c-14.501,0-26.299,11.798-26.299,26.3
		c0,14.502,11.798,26.3,26.299,26.3h13.271l38.042,228.7l-17.355,21.129c-6.05,7.363-6.344,17.877-0.715,25.567
		c3.915,5.352,10.211,8.546,16.842,8.546c2.663,0,5.269-0.502,7.741-1.492l54.381-21.739h49.641
		c11.619,17.354,31.115,27.908,52.221,27.908c34.657,0,62.854-28.195,62.854-62.854c0-30.374-21.458-55.811-50.354-61.608V164.111
		h10.321c10.036,0,19.336-5.843,23.695-14.888c2.291-4.757,3.064-10.012,2.345-15.093l5.566-3.402
		C373.49,127.443,377.266,122.261,378.744,116.137z M313.683,412.307c-12.364,0-22.424-10.062-22.424-22.429
		c0-12.368,10.06-22.43,22.424-22.43c12.367,0,22.432,10.062,22.432,22.43C336.115,402.244,326.051,412.307,313.683,412.307z"/>
</g>
<g>
</g>
<g>
</g>
<g>
</g>
<g>
</g>
<g>
</g>
<g>
</g>
<g>
</g>
<g>
</g>
<g>
</g>
<g>
</g>
<g>
</g>
<g>
</g>
<g>
</g>
<g>
</g>
<g>
</g>
</svg>
