<?xml version="1.0" encoding="iso-8859-1"?>
<!-- Generator: Adobe Illustrator 16.0.0, SVG Export Plug-In . SVG Version: 6.00 Build 0)  -->
<!DOCTYPE svg PUBLIC "-//W3C//DTD SVG 1.1//EN" "http://www.w3.org/Graphics/SVG/1.1/DTD/svg11.dtd">
<svg version="1.1" id="Capa_1" xmlns="http://www.w3.org/2000/svg" xmlns:xlink="http://www.w3.org/1999/xlink" x="0px" y="0px"
	 width="422.688px" height="422.688px" viewBox="0 0 422.688 422.688" style="enable-background:new 0 0 422.688 422.688;"
	 xml:space="preserve">
<g>
	<g>
		<path d="M419.769,211.797c0.09,0.516,0.185,1.041,0.277,1.578c0.002,0.012,0.004,0.021,0.006,0.031
			C420.034,213.305,419.931,212.717,419.769,211.797z"/>
		<path d="M420.052,213.409C420.056,213.428,420.058,213.434,420.052,213.409c-0.002-0.013-0.004-0.022-0.006-0.035
			c-2.938-16.629-10.09-32.493-22.543-44.147c-10.131-9.48-22.924-15.564-36.285-18.963c-9.084-2.312-18.457-3.453-27.838-3.703
			c-4.271-8.488-9.353-16.501-15.146-23.935c1.164-1.099,2.332-2.192,3.513-3.272c12.703-11.636,26.317-22.311,40.555-32.006
			c2.818-1.919,5.658-3.812,8.557-5.605c0.875-0.542,1.584-1.256,1.941-2.245c1.088-2.995-1.439-4.796-3.492-6.421
			c-4.545-3.6-9.41-6.81-14.57-9.46c-9.608-4.936-20.209-7.8-31.024-8.048c-9.521-0.218-19,1.527-27.963,4.682
			c-12.054,4.243-23.181,10.89-33.205,18.826c-8.668-3.844-17.781-6.857-27.24-8.945c1.275-10.804,3.129-21.539,5.424-32.17
			c1.869-8.655,4.025-17.252,6.519-25.749c0.584-1.988,1.184-3.972,1.82-5.943c0.12-0.375,0.266-0.75,0.36-1.132
			c0.648-2.57-1.36-5.138-4.006-5.138c-10.813,0-21.688,1.696-31.742,5.77c-10.061,4.076-19.018,10.497-26.227,18.603
			c-1.109,1.248-2.18,2.532-3.211,3.848c0.156-0.198,0.338-0.431-0.002,0.002c-0.238,0.304-0.129,0.167,0,0.002
			c-9.965,12.725-16.057,28.126-19.434,43.943c-9.568,2.706-18.732,6.38-27.389,10.9c-10.939-16.778-20.424-34.6-28.33-52.997
			c-0.646-1.506-1.285-3.016-1.891-4.539c-0.559-1.402-1.672-2.471-3.193-2.742c-2.861-0.51-5.152,2.379-7.029,4.113
			c-7.771,7.18-14.375,15.675-18.791,25.324c-8.842,19.321-7.572,41.186-0.674,60.891c2.002,5.715,4.43,11.312,7.217,16.732
			c-5.678,8.293-10.514,17.206-14.387,26.613c-16.877-5.186-33.359-11.748-49.277-19.376c-3.336-1.599-6.66-3.233-9.916-4.988
			c-1.32-0.711-2.852-0.813-4.186-0.057c-2.414,1.368-2.359,4.668-2.684,7.091c-0.746,5.581-1.014,11.232-0.68,16.855
			c0.623,10.502,3.439,20.809,8.496,30.049c4.602,8.406,10.916,15.781,18.189,21.989c8.91,7.604,19.172,13.53,29.979,18.089
			c1.061,10.419,3.244,20.51,6.406,30.161c-0.807,0.339-1.611,0.681-2.422,1.013c-16.086,6.604-32.709,11.986-49.58,16.193
			c-2.906,0.725-5.82,1.434-8.756,2.027c-2.225,0.451-3.723,2.66-3.256,4.899c0.252,1.199,1.088,2.294,1.717,3.326
			c0.678,1.114,1.377,2.216,2.098,3.303c2.648,3.991,5.592,7.79,8.857,11.297c6.094,6.546,13.316,12.015,21.396,15.869
			c8.207,3.916,17.143,6.106,26.191,6.832c13.932,1.115,27.99-1.019,41.381-5.164c7.393,7.063,15.535,13.349,24.287,18.731
			c-0.465,0.906-0.928,1.813-1.402,2.715c-8.09,15.406-17.371,30.225-27.605,44.299c-1.738,2.393-3.494,4.777-5.336,7.092
			c-1.457,1.828-1.098,4.582,0.809,5.947c1.125,0.807,2.686,1.133,3.982,1.561c1.6,0.527,3.211,1.012,4.836,1.455
			c5.938,1.615,12.043,2.646,18.193,2.918c9.604,0.42,19.223-1.129,28.197-4.576c9.32-3.58,17.801-9.102,25.213-15.76
			c7.947-7.139,14.691-15.549,20.439-24.541c2.719,0.154,5.455,0.238,8.213,0.238c7.441,0,14.754-0.566,21.895-1.654
			c0.301,1.297,0.594,2.596,0.877,3.895c3.771,17.326,6.211,34.984,7.381,52.678c0.132,1.996,0.246,3.994,0.33,5.992
			c0.06,1.395-0.041,2.836,0.797,4.047c0.705,1.018,1.855,1.678,3.091,1.77c1.416,0.105,2.823-0.637,4.11-1.143
			c2.418-0.947,4.799-1.988,7.131-3.129c4.431-2.168,8.687-4.699,12.658-7.623c7.553-5.557,13.996-12.543,18.805-20.6
			c5.445-9.119,8.728-19.391,10.25-29.871c1.615-11.107,1.394-22.479-0.186-33.645c7.748-5.867,14.887-12.498,21.307-19.777
			c13.64,10.175,26.469,21.459,38.496,33.481c3.232,3.229,6.414,6.513,9.488,9.894c1.057,1.158,2.02,2.316,3.75,2.439
			c3.008,0.215,4.197-2.561,5.397-4.794c1.5-2.789,2.867-5.647,4.076-8.573c4.479-10.83,6.672-22.566,5.724-34.281
			c-0.824-10.155-3.945-20.01-8.646-29.022c-6.387-12.251-15.496-22.953-25.82-32.122c2.107-9.125,3.345-18.579,3.629-28.268
			c1.787-0.106,3.576-0.201,5.365-0.276c12.33-0.517,24.688-0.323,37.002,0.45c6.609,0.414,13.213,0.99,19.787,1.785
			c1.391,0.168,2.783,0.347,4.17,0.545C417.819,218.561,420.597,216.502,420.052,213.409z M204.245,290.057
			c-43.473,0-78.713-35.24-78.713-78.711c0-43.472,35.24-78.712,78.713-78.712s78.713,35.241,78.713,78.712
			C282.958,254.816,247.718,290.057,204.245,290.057z"/>
	</g>
</g>
<g>
</g>
<g>
</g>
<g>
</g>
<g>
</g>
<g>
</g>
<g>
</g>
<g>
</g>
<g>
</g>
<g>
</g>
<g>
</g>
<g>
</g>
<g>
</g>
<g>
</g>
<g>
</g>
<g>
</g>
</svg>
