<?xml version="1.0" encoding="iso-8859-1"?>
<!-- Generator: Adobe Illustrator 16.0.0, SVG Export Plug-In . SVG Version: 6.00 Build 0)  -->
<!DOCTYPE svg PUBLIC "-//W3C//DTD SVG 1.1//EN" "http://www.w3.org/Graphics/SVG/1.1/DTD/svg11.dtd">
<svg version="1.1" id="Capa_1" xmlns="http://www.w3.org/2000/svg" xmlns:xlink="http://www.w3.org/1999/xlink" x="0px" y="0px"
	 width="428.734px" height="428.734px" viewBox="0 0 428.734 428.734" style="enable-background:new 0 0 428.734 428.734;"
	 xml:space="preserve">
<g>
	<g>
		<path d="M415.734,305.644c0,0-5.814,6.926-8.079,5.33c-12.886-9.603-79.692-62.562-155.208-99.883l-42.333-66.799
			c-1.326-2.093-3.382-3.619-5.77-4.282C70.727,102.885,9.572,120.973,7.034,121.762c-4.545,1.412-7.465,5.831-6.982,10.565
			l4.714,46.222c-4.344,4.144-5.643,9.521-3.215,16.262c25.517,70.865,50.184,103.197,80.997,147.541c-24.875,0-32,39.376,16,39.376
			c68.168,0,261.52,0,271.651,0s58.256,3.177,58.535-70.747C428.757,305.019,415.734,305.644,415.734,305.644z M24.012,170.138
			l-3.151-30.893c19.63-3.197,76.087-7.809,174.428,19.017l23.938,37.775C206.592,188.534,60.882,162.38,24.012,170.138z"/>
		<path d="M264.563,177.697v26.072c70.011,36.673,129.958,84.165,142.093,93.206c0.62,0.434,1.683,0.025,2.837-0.717v-119.6
			c0-2.653-1.054-5.197-2.93-7.072l-19.272-19.266c-1.875-1.875-4.418-2.928-7.07-2.928h-38.574l-2.381-72.904h18.933
			c2.761,0,5-2.239,5-5c0-2.761-2.239-5-5-5h-19.259l-0.493-15.082c-0.044-1.348-1.149-2.418-2.499-2.418h-14
			c-1.349,0-2.455,1.07-2.499,2.418l-0.493,15.082h-19.258c-2.761,0-5,2.239-5,5c0,2.761,2.239,5,5,5h18.933l-2.381,72.904h-57.848
			c-4.044,0-7.691,2.437-9.239,6.173c-1.548,3.736-0.692,8.038,2.168,10.898L264.563,177.697z"/>
	</g>
</g>
<g>
</g>
<g>
</g>
<g>
</g>
<g>
</g>
<g>
</g>
<g>
</g>
<g>
</g>
<g>
</g>
<g>
</g>
<g>
</g>
<g>
</g>
<g>
</g>
<g>
</g>
<g>
</g>
<g>
</g>
</svg>
