<?xml version="1.0" encoding="iso-8859-1"?>
<!-- Generator: Adobe Illustrator 16.0.0, SVG Export Plug-In . SVG Version: 6.00 Build 0)  -->
<!DOCTYPE svg PUBLIC "-//W3C//DTD SVG 1.1//EN" "http://www.w3.org/Graphics/SVG/1.1/DTD/svg11.dtd">
<svg version="1.1" id="Capa_1" xmlns="http://www.w3.org/2000/svg" xmlns:xlink="http://www.w3.org/1999/xlink" x="0px" y="0px"
	 width="365.445px" height="365.445px" viewBox="0 0 365.445 365.445" style="enable-background:new 0 0 365.445 365.445;"
	 xml:space="preserve">
<g>
	<g>
		<path d="M218.893,228.685h-72.336c-1.061,0-2.076,0.42-2.826,1.17s-1.17,1.767-1.17,2.826v23.979c0,2.209,1.789,3.998,3.996,3.998
			h72.336c1.059,0,2.076-0.42,2.824-1.17c0.752-0.75,1.172-1.767,1.172-2.826v-23.979
			C222.889,230.474,221.1,228.685,218.893,228.685z"/>
		<path d="M345.445,1.204H20c-11.046,0-20,8.954-20,20v323.037c0,11.045,8.954,20,20,20h325.445c11.045,0,20-8.955,20-20V21.204
			C365.445,10.159,356.492,1.204,345.445,1.204z M290.061,281.675c-0.723,4.907-4.934,8.543-9.893,8.543H85.177
			c-4.961,0-9.172-3.636-9.895-8.543c-9.67-65.66-9.67-132.244,0-197.904c0.723-4.907,4.934-8.543,9.895-8.543h194.991
			c4.959,0,9.17,3.636,9.893,8.543C299.867,150.356,299.867,215.091,290.061,281.675z"/>
		<path d="M146.955,197.888v-80.329c0-2.207-1.789-3.996-3.996-3.996H118.98c-2.209,0-3.998,1.789-3.998,3.996v80.329
			c0,2.207,1.789,3.996,3.998,3.996h23.979C145.166,201.884,146.955,200.095,146.955,197.888z"/>
		<path d="M246.467,113.563h-23.979c-2.207,0-3.996,1.789-3.996,3.996v80.329c0,2.207,1.789,3.996,3.996,3.996h23.979
			c2.207,0,3.996-1.789,3.996-3.996v-80.329C250.463,115.352,248.674,113.563,246.467,113.563z"/>
	</g>
</g>
<g>
</g>
<g>
</g>
<g>
</g>
<g>
</g>
<g>
</g>
<g>
</g>
<g>
</g>
<g>
</g>
<g>
</g>
<g>
</g>
<g>
</g>
<g>
</g>
<g>
</g>
<g>
</g>
<g>
</g>
</svg>
