<?xml version="1.0" encoding="iso-8859-1"?>
<!-- Generator: Adobe Illustrator 16.0.0, SVG Export Plug-In . SVG Version: 6.00 Build 0)  -->
<!DOCTYPE svg PUBLIC "-//W3C//DTD SVG 1.1//EN" "http://www.w3.org/Graphics/SVG/1.1/DTD/svg11.dtd">
<svg version="1.1" id="Capa_1" xmlns="http://www.w3.org/2000/svg" xmlns:xlink="http://www.w3.org/1999/xlink" x="0px" y="0px"
	 width="384.344px" height="384.344px" viewBox="0 0 384.344 384.344" style="enable-background:new 0 0 384.344 384.344;"
	 xml:space="preserve">
<g>
	<g>
		<path d="M383.973,236.083L352.976,19.537c-1.475-10.302-10.298-17.954-20.704-17.954H52.053c-10.407,0-19.231,7.651-20.705,17.954
			L0.212,237.061c-0.029,0.205-0.048,0.411-0.072,0.617c-0.012,0.108-0.026,0.215-0.038,0.325c-0.06,0.62-0.089,1.242-0.093,1.858
			C0.008,239.917,0,239.968,0,240.022v34.582c0,11.553,9.365,20.918,20.916,20.918h127.303v42.848h-37.803
			c-12.259,0-22.196,9.938-22.196,22.195c0,12.259,9.938,22.196,22.196,22.196h59.998h43.515h59.999
			c12.258,0,22.195-9.938,22.195-22.196c0-12.258-9.938-22.195-22.195-22.195h-37.803v-42.848h127.282
			c11.551,0,20.916-9.363,20.916-20.916v-34.199c0.002-0.127,0.021-0.252,0.021-0.383
			C384.344,238.677,384.215,237.36,383.973,236.083z M45.039,219.108L70.187,43.416h243.948l25.148,175.692H45.039z"/>
		<path d="M165.815,121.665h52.694c1.372,0,2.683-0.567,3.621-1.567c0.938-0.999,1.423-2.343,1.338-3.711L220.062,61.9
			c-0.164-2.618-2.336-4.658-4.959-4.658H169.22c-2.622,0-4.794,2.04-4.958,4.658l-3.406,54.486
			c-0.085,1.368,0.398,2.712,1.338,3.711C163.133,121.097,164.443,121.665,165.815,121.665z"/>
		<path d="M295.525,121.665c1.44,0,2.811-0.626,3.754-1.715c0.943-1.088,1.368-2.531,1.165-3.958l-7.8-54.484
			c-0.351-2.447-2.445-4.266-4.918-4.266h-43.89c-1.372,0-2.683,0.566-3.622,1.567c-0.938,0.999-1.423,2.343-1.337,3.711
			l3.405,54.484c0.162,2.62,2.335,4.66,4.958,4.66L295.525,121.665L295.525,121.665z"/>
		<path d="M220.301,140.403h-56.278c-2.624,0-4.796,2.039-4.959,4.66l-3.405,54.486c-0.085,1.368,0.398,2.712,1.338,3.711
			c0.938,0.999,2.249,1.567,3.621,1.567h63.089c1.373,0,2.683-0.568,3.621-1.567c0.939-0.999,1.424-2.343,1.338-3.711l-3.405-54.486
			C225.097,142.443,222.925,140.403,220.301,140.403z"/>
		<path d="M304.548,144.669c-0.351-2.447-2.446-4.266-4.919-4.266h-50.594c-1.372,0-2.684,0.567-3.621,1.566
			c-0.939,1-1.423,2.344-1.338,3.711l3.404,54.489c0.163,2.618,2.335,4.657,4.959,4.657h54.988c1.44,0,2.811-0.625,3.754-1.715
			c0.944-1.088,1.368-2.531,1.164-3.957L304.548,144.669z"/>
		<path d="M135.289,140.403H84.694c-2.473,0-4.568,1.818-4.919,4.266l-7.799,54.485c-0.204,1.427,0.221,2.871,1.164,3.959
			c0.944,1.09,2.314,1.715,3.755,1.715h54.988c2.623,0,4.794-2.04,4.958-4.658l3.405-54.489c0.086-1.367-0.397-2.711-1.338-3.711
			C137.971,140.971,136.66,140.403,135.289,140.403z"/>
		<path d="M140.487,57.241h-43.89c-2.473,0-4.568,1.818-4.919,4.266l-7.799,54.484c-0.203,1.427,0.222,2.87,1.165,3.958
			c0.943,1.089,2.313,1.715,3.754,1.715h48.282c2.623,0,4.795-2.04,4.959-4.658l3.407-54.486c0.084-1.368-0.399-2.712-1.339-3.711
			C143.17,57.808,141.86,57.241,140.487,57.241z"/>
	</g>
</g>
<g>
</g>
<g>
</g>
<g>
</g>
<g>
</g>
<g>
</g>
<g>
</g>
<g>
</g>
<g>
</g>
<g>
</g>
<g>
</g>
<g>
</g>
<g>
</g>
<g>
</g>
<g>
</g>
<g>
</g>
</svg>
