<?xml version="1.0" encoding="iso-8859-1"?>
<!-- Generator: Adobe Illustrator 16.0.0, SVG Export Plug-In . SVG Version: 6.00 Build 0)  -->
<!DOCTYPE svg PUBLIC "-//W3C//DTD SVG 1.1//EN" "http://www.w3.org/Graphics/SVG/1.1/DTD/svg11.dtd">
<svg version="1.1" id="Capa_1" xmlns="http://www.w3.org/2000/svg" xmlns:xlink="http://www.w3.org/1999/xlink" x="0px" y="0px"
	 width="454.073px" height="454.073px" viewBox="0 0 454.073 454.073" style="enable-background:new 0 0 454.073 454.073;"
	 xml:space="preserve">
<g>
	<g>
		<path d="M288.984,200.382c-32.851,0-62.149,15.19-81.271,38.925c-5.35-5.422-11.488-10.194-18.456-13.059
			c-10.17-4.181-21.726-4.801-32.469-2.909c-11.109,1.956-21.67,6.136-32.758,8.163c-3.623,0.664-13.963,2.248-20.387-5.215
			c-5.255-6.561-4.309-18.917-3.642-27.642h45.271c1.855,0,3.36-1.505,3.36-3.36v-77.294h18.147c1.856,0,3.36-1.505,3.36-3.36
			V76.417c0-1.856-1.504-3.361-3.36-3.361h-16.803V16.803c0-9.28-7.523-16.803-16.804-16.803c-9.279,0-16.803,7.523-16.803,16.803
			v56.252H62.6V16.803C62.6,7.523,55.077,0,45.797,0c-9.28,0-16.803,7.523-16.803,16.803v56.252H12.196
			c-1.857,0-3.361,1.505-3.361,3.361v38.214c0,1.855,1.504,3.36,3.361,3.36h18.146v77.294c0,1.855,1.505,3.36,3.361,3.36H76.59
			c0.002,0.952,0.002,1.881-0.016,2.766c-0.226,11.277-0.159,23.332,5.03,33.641c8.71,17.303,28.869,22.528,46.836,19.526
			c16.297-2.724,34.207-12.988,50.841-7.048c3.129,1.059,6.861,3.771,9.599,6.249c1.946,1.761,3.752,4.226,5.705,6.489
			c-6.356,13.479-9.916,28.539-9.916,44.43c0,57.611,46.704,104.314,104.314,104.314s104.313-46.703,104.313-104.314
			C393.298,247.085,346.595,200.382,288.984,200.382z"/>
		<path d="M365.505,222.084c1.484,0.487,3.024,0.733,4.576,0.733c0.001,0,0.001,0,0.001,0c6.358,0,11.962-4.062,13.943-10.106
			l8.181-24.947c0.528-1.612,0.023-3.384-1.276-4.474c-1.3-1.091-3.131-1.281-4.628-0.48l-23.155,12.393
			c-3.347,1.801-5.836,4.771-7.013,8.361c-1.223,3.725-0.92,7.703,0.851,11.201C358.755,218.265,361.782,220.864,365.505,222.084z"
			/>
		<path d="M445.176,277.245c-0.294-1.671-1.574-2.994-3.235-3.342l-25.706-5.392c-3.668-0.762-7.572-0.074-10.746,1.897
			c-3.33,2.067-5.656,5.31-6.548,9.127c-0.894,3.817-0.245,7.754,1.822,11.083c2.696,4.342,7.361,6.936,12.479,6.936h0.001
			c2.729,0,5.405-0.766,7.732-2.211l22.304-13.853C444.72,280.598,445.47,278.915,445.176,277.245z"/>
		<path d="M409.782,358.792c-2.354-2.981-5.712-4.918-9.453-5.453c-0.694-0.1-1.399-0.149-2.098-0.149
			c-7.245,0-13.485,5.416-14.513,12.595c-0.557,3.881,0.432,7.746,2.782,10.884c2.352,3.138,5.783,5.173,9.664,5.729l25.988,3.725
			c0.197,0.028,0.395,0.042,0.59,0.042c1.467,0,2.846-0.779,3.594-2.076c0.85-1.469,0.718-3.306-0.33-4.641L409.782,358.792z"/>
		<path d="M332.132,408.664c-3.614,0-7.091,1.329-9.785,3.743c-2.922,2.615-4.647,6.211-4.864,10.126
			c-0.215,3.915,1.105,7.679,3.722,10.599l17.515,19.559c0.804,0.896,1.936,1.382,3.095,1.382c0.475,0,0.955-0.081,1.419-0.25
			c1.595-0.58,2.675-2.072,2.729-3.769l0.847-26.25c0.113-3.796-1.214-7.438-3.735-10.254
			C340.291,410.445,336.304,408.664,332.132,408.664z"/>
		<path d="M245.844,408.666c-0.16,0-0.32,0.003-0.479,0.007c-3.919,0.126-7.556,1.771-10.235,4.63
			c-2.682,2.86-4.089,6.594-3.962,10.512l0.845,26.241c0.055,1.695,1.137,3.188,2.729,3.768c0.464,0.169,0.942,0.25,1.419,0.25
			c1.158,0,2.29-0.486,3.093-1.382l17.522-19.564c2.527-2.835,3.852-6.478,3.729-10.256
			C260.25,414.906,253.809,408.666,245.844,408.666z"/>
		<path d="M188.792,356.329c-2.574-2.022-5.792-3.138-9.061-3.138c-4.539,0-8.748,2.046-11.549,5.611l-16.22,20.646
			c-1.049,1.333-1.179,3.171-0.331,4.641c0.748,1.296,2.126,2.076,3.595,2.076c0.195,0,0.393-0.014,0.589-0.042l26.002-3.726
			c3.759-0.55,7.113-2.488,9.447-5.46C196.266,370.574,195.156,361.329,188.792,356.329z"/>
		<path d="M164.744,297.559c1.008,0,2.02-0.105,3.006-0.313c3.837-0.806,7.131-3.056,9.274-6.337
			c2.146-3.282,2.883-7.203,2.077-11.039c-1.417-6.762-7.453-11.667-14.353-11.667c-1.011,0-2.028,0.104-3.023,0.313l-25.696,5.391
			c-1.661,0.348-2.942,1.672-3.236,3.342c-0.295,1.671,0.456,3.354,1.898,4.248l22.312,13.857
			C159.336,296.796,162.014,297.559,164.744,297.559z"/>
		<path d="M193.944,212.726c1.192,3.604,3.685,6.572,7.018,8.356c2.125,1.137,4.517,1.738,6.916,1.738
			c5.429,0,10.391-2.972,12.948-7.753c1.851-3.457,2.244-7.426,1.107-11.179c-1.135-3.753-3.665-6.838-7.121-8.688l-23.148-12.388
			c-1.497-0.801-3.328-0.61-4.628,0.48s-1.805,2.862-1.276,4.474L193.944,212.726z"/>
		<path d="M288.986,193.303L288.986,193.303c1.872,0,3.709-0.355,5.457-1.056c3.639-1.459,6.492-4.248,8.034-7.852
			c1.541-3.605,1.587-7.594,0.128-11.232l-9.771-24.369c-0.631-1.575-2.156-2.607-3.853-2.607c-1.697,0-3.224,1.032-3.854,2.606
			l-9.773,24.379c-1.404,3.528-1.402,7.404,0.005,10.914C277.604,189.685,282.953,193.303,288.986,193.303z"/>
	</g>
</g>
<g>
</g>
<g>
</g>
<g>
</g>
<g>
</g>
<g>
</g>
<g>
</g>
<g>
</g>
<g>
</g>
<g>
</g>
<g>
</g>
<g>
</g>
<g>
</g>
<g>
</g>
<g>
</g>
<g>
</g>
</svg>
