<?xml version="1.0" encoding="iso-8859-1"?>
<!-- Generator: Adobe Illustrator 16.0.0, SVG Export Plug-In . SVG Version: 6.00 Build 0)  -->
<!DOCTYPE svg PUBLIC "-//W3C//DTD SVG 1.1//EN" "http://www.w3.org/Graphics/SVG/1.1/DTD/svg11.dtd">
<svg version="1.1" id="Capa_1" xmlns="http://www.w3.org/2000/svg" xmlns:xlink="http://www.w3.org/1999/xlink" x="0px" y="0px"
	 width="438.719px" height="438.719px" viewBox="0 0 438.719 438.719" style="enable-background:new 0 0 438.719 438.719;"
	 xml:space="preserve">
<g>
	<g>
		<rect x="298.574" y="118.375" width="41.018" height="27.432"/>
		<path d="M339.59,76.926c-11.277,0-25.312,0-41.016,0v18.491h41.016V76.926z"/>
		<path d="M407.859,299.526h-377c-8.284,0-15,6.716-15,15s6.716,15,15,15H53.62c-2.932,5.813-4.594,12.378-4.594,19.333
			c0,23.748,19.252,43,43,43s43-19.252,43-43c0-6.956-1.662-13.52-4.594-19.333h35.18v26.681c0,2.762,2.238,5,5,5h97.494
			c2.762,0,5-2.238,5-5v-26.681h35.18c-2.932,5.813-4.594,12.378-4.594,19.333c0,23.748,19.252,43,43,43s43-19.252,43-43
			c0-6.956-1.662-13.52-4.594-19.333h22.762c8.283,0,15-6.716,15-15S416.143,299.526,407.859,299.526z"/>
		<path d="M70.664,284.526c0.306,0,297.084,0,297.391,0c39.025,0,70.664-46.474,70.664-103.8c0-57.328-31.639-103.8-70.664-103.8
			c-0.023,0-1.969,0-5.506,0v102.793c0,6.339-5.141,11.479-11.48,11.479s-11.479-5.139-11.479-11.479v-10.956h-41.016v10.956
			c0,6.339-5.139,11.479-11.479,11.479s-11.48-5.139-11.48-11.479V76.926c-33.764,0-72.062,0-106.344,0V66.859h0.894
			c5.522,0,10-4.477,10-10s-4.478-10-10-10H97.882c-5.522,0-10,4.477-10,10s4.478,10,10,10h0.894v10.067c-17.33,0-28.056,0-28.113,0
			C31.638,76.926,0,123.398,0,180.727C0.001,238.053,31.638,284.526,70.664,284.526z M128.169,132.852
			c0.945-1.015,2.711-1.015,3.656,0c1.531,1.642,37.497,40.466,37.497,61.546c0,21.684-17.642,39.325-39.325,39.325
			c-21.683,0-39.325-17.641-39.325-39.325C90.672,173.317,126.637,134.493,128.169,132.852z"/>
	</g>
</g>
<g>
</g>
<g>
</g>
<g>
</g>
<g>
</g>
<g>
</g>
<g>
</g>
<g>
</g>
<g>
</g>
<g>
</g>
<g>
</g>
<g>
</g>
<g>
</g>
<g>
</g>
<g>
</g>
<g>
</g>
</svg>
