<?xml version="1.0" encoding="iso-8859-1"?>
<!-- Generator: Adobe Illustrator 16.0.0, SVG Export Plug-In . SVG Version: 6.00 Build 0)  -->
<!DOCTYPE svg PUBLIC "-//W3C//DTD SVG 1.1//EN" "http://www.w3.org/Graphics/SVG/1.1/DTD/svg11.dtd">
<svg version="1.1" id="Capa_1" xmlns="http://www.w3.org/2000/svg" xmlns:xlink="http://www.w3.org/1999/xlink" x="0px" y="0px"
	 width="433.739px" height="433.74px" viewBox="0 0 433.739 433.74" style="enable-background:new 0 0 433.739 433.74;"
	 xml:space="preserve">
<g>
	<path d="M432.017,389.955L225.852,32.864c-1.855-3.213-5.283-5.191-8.992-5.191c-3.71,0-7.137,1.979-8.992,5.191L1.392,390.492
		c-1.855,3.213-1.855,7.17,0,10.383c1.854,3.213,5.282,5.191,8.992,5.191h412.951c0.006,0,0.012-0.002,0.021,0
		c5.734,0,10.383-4.648,10.383-10.383C433.738,393.566,433.104,391.597,432.017,389.955z M216.875,257.098
		c9.184,0,16.655,7.47,16.655,16.653c0,9.185-7.471,16.656-16.655,16.656c-9.183,0-16.654-7.472-16.654-16.656
		C200.222,264.568,207.693,257.098,216.875,257.098z M113.123,282.518c-0.616,0-1.214-0.228-1.677-0.64
		c-0.5-0.445-0.802-1.073-0.838-1.742c-0.033-0.609-0.074-1.217-0.115-1.824c-0.098-1.465-0.199-2.979-0.199-4.535
		c0-20.15,5.665-39.767,16.383-56.724c10.415-16.479,25.133-29.803,42.565-38.534c0.598-0.299,1.291-0.349,1.924-0.138
		c0.633,0.211,1.158,0.665,1.457,1.264l32.597,65.188c0.623,1.244,0.119,2.756-1.125,3.379c-9.819,4.92-15.934,16.939-15.75,27.357
		c0.024,1.352-1.017,2.485-2.367,2.566l-72.705,4.375C113.224,282.516,113.173,282.518,113.123,282.518z M275.583,362.685
		c-17.472,11.557-37.771,17.664-58.708,17.664c-20.935,0-41.236-6.107-58.707-17.664c-1.16-0.768-1.478-2.33-0.713-3.49
		l40.134-60.783c0.368-0.558,0.943-0.945,1.597-1.08c0.655-0.133,1.336-0.002,1.894,0.367c4.719,3.119,10.18,4.768,15.794,4.768
		c5.609,0,11.072-1.648,15.796-4.768c1.16-0.767,2.724-0.447,3.49,0.713l40.133,60.783
		C277.062,360.355,276.742,361.917,275.583,362.685z M323.226,278.615c-0.035,0.506-0.07,1.01-0.102,1.516
		c-0.082,1.336-1.19,2.365-2.512,2.365c-0.051,0-0.103-0.002-0.152-0.006l-72.706-4.353c-1.37-0.082-2.484-1.25-2.365-2.618
		c0.637-7.357-5.914-22.398-15.735-27.335c-1.242-0.624-1.744-2.135-1.122-3.378l32.597-65.176c0.3-0.597,0.823-1.052,1.458-1.263
		c0.636-0.21,1.326-0.161,1.925,0.139c17.432,8.739,32.148,22.065,42.561,38.538c10.718,16.958,16.38,36.573,16.374,56.721
		C323.445,275.432,323.333,277.05,323.226,278.615z"/>
</g>
<g>
</g>
<g>
</g>
<g>
</g>
<g>
</g>
<g>
</g>
<g>
</g>
<g>
</g>
<g>
</g>
<g>
</g>
<g>
</g>
<g>
</g>
<g>
</g>
<g>
</g>
<g>
</g>
<g>
</g>
</svg>
