<?xml version="1.0" encoding="iso-8859-1"?>
<!-- Generator: Adobe Illustrator 16.0.0, SVG Export Plug-In . SVG Version: 6.00 Build 0)  -->
<!DOCTYPE svg PUBLIC "-//W3C//DTD SVG 1.1//EN" "http://www.w3.org/Graphics/SVG/1.1/DTD/svg11.dtd">
<svg version="1.1" id="Capa_1" xmlns="http://www.w3.org/2000/svg" xmlns:xlink="http://www.w3.org/1999/xlink" x="0px" y="0px"
	 width="472.051px" height="472.051px" viewBox="0 0 472.051 472.051" style="enable-background:new 0 0 472.051 472.051;"
	 xml:space="preserve">
<g>
	<path d="M433.442,75.433c-1.703-3.359-5.15-5.475-8.917-5.475h-32v-9c0-5.523-4.478-10-10-10s-10,4.477-10,10v9h-20v-9
		c0-5.523-4.478-10-10-10s-10,4.477-10,10v9h-46.409l-8.244-57.102C276.807,5.476,270.481,0,263.025,0h-54
		c-7.456,0-13.78,5.477-14.846,12.856l-8.245,57.102h-46.409v-9c0-5.523-4.478-10-10-10s-10,4.477-10,10v9h-20v-9
		c0-5.523-4.478-10-10-10s-10,4.477-10,10v9h-32c-3.767,0-7.214,2.116-8.918,5.475c-1.704,3.359-1.376,7.39,0.848,10.43l30,41
		c1.883,2.574,4.881,4.095,8.07,4.095h99.601l-41.813,289.56h-15.532c-5.522,0-10,4.477-10,10v31.533c0,5.523,4.478,10,10,10H352.27
		c5.521,0,10-4.477,10-10v-31.533c0-5.523-4.479-10-10-10h-15.532l-41.812-289.56h99.601c3.189,0,6.188-1.521,8.07-4.095l30-41
		C434.819,82.823,435.147,78.792,433.442,75.433z M203.862,155.714l49.987,37.292l-60.97,38.763L203.862,155.714z M186.861,273.449
		l82.054,62.98l-101.799,73.758L186.861,273.449z M296.724,353.328l8.979,62.189h-94.812L296.724,353.328z M212.168,255.055
		l64.449-40.974l14.688,101.717L212.168,255.055z M221.825,131.687l38.229-32.31l9.845,68.173L221.825,131.687z M250.036,30
		L255,64.37l-43.224,36.531L222.015,30H250.036z M82.6,110.958l-15.366-21h115.813l-3.031,21H82.6z M389.451,110.958h-97.414
		l-3.031-21h115.812L389.451,110.958z"/>
</g>
<g>
</g>
<g>
</g>
<g>
</g>
<g>
</g>
<g>
</g>
<g>
</g>
<g>
</g>
<g>
</g>
<g>
</g>
<g>
</g>
<g>
</g>
<g>
</g>
<g>
</g>
<g>
</g>
<g>
</g>
</svg>
