<?xml version="1.0" encoding="iso-8859-1"?>
<!-- Generator: Adobe Illustrator 16.0.0, SVG Export Plug-In . SVG Version: 6.00 Build 0)  -->
<!DOCTYPE svg PUBLIC "-//W3C//DTD SVG 1.1//EN" "http://www.w3.org/Graphics/SVG/1.1/DTD/svg11.dtd">
<svg version="1.1" id="Capa_1" xmlns="http://www.w3.org/2000/svg" xmlns:xlink="http://www.w3.org/1999/xlink" x="0px" y="0px"
	 width="456.349px" height="456.349px" viewBox="0 0 456.349 456.349" style="enable-background:new 0 0 456.349 456.349;"
	 xml:space="preserve">
<g>
	<path d="M455.176,224.246c-0.75-0.75-1.768-1.171-2.828-1.171h-15.703l0.023-93.203c0-1.062-0.421-2.079-1.171-2.829
		c-0.751-0.75-1.769-1.172-2.829-1.172H329.674l13.841-15.548h83.167c2.209,0,4-1.791,4-4v-26.57c0-2.209-1.791-4-4-4h-90.967
		c-4.957,0-9.683,2.133-12.967,5.853l-12.594,14.273L4,95.887c-1.062,0-2.079,0.422-2.829,1.172S0,98.827,0,99.888l0.018,42.378
		c0.001,1.452,0.787,2.789,2.055,3.494l70.639,39.286l52.789,67.434c-29.855,6.328-51.27,32.58-51.27,63.34
		c0,35.717,29.058,64.775,64.775,64.775c29.168,0,54.675-19.47,62.433-47.49h73.348c7.758,28.021,33.264,47.491,62.433,47.491
		c29.162,0,54.666-19.459,62.427-47.469l52.701-0.003c2.208,0,4-1.791,4-4l0.001-102.049
		C456.348,226.013,455.926,224.996,455.176,224.246z M139.006,347.382c-17.403,0-31.563-14.159-31.563-31.562
		c0-17.401,14.159-31.561,31.563-31.561c17.402,0,31.561,14.158,31.561,31.561C170.567,333.223,156.408,347.382,139.006,347.382z
		 M337.219,347.382c-17.402,0-31.561-14.159-31.561-31.562c0-17.401,14.157-31.561,31.561-31.561s31.563,14.158,31.563,31.561
		C368.781,333.223,354.622,347.382,337.219,347.382z M402.072,207.621h-38.121l-19.837-47.18h57.958V207.621z"/>
</g>
<g>
</g>
<g>
</g>
<g>
</g>
<g>
</g>
<g>
</g>
<g>
</g>
<g>
</g>
<g>
</g>
<g>
</g>
<g>
</g>
<g>
</g>
<g>
</g>
<g>
</g>
<g>
</g>
<g>
</g>
</svg>
