<?xml version="1.0" encoding="iso-8859-1"?>
<!-- Generator: Adobe Illustrator 16.0.0, SVG Export Plug-In . SVG Version: 6.00 Build 0)  -->
<!DOCTYPE svg PUBLIC "-//W3C//DTD SVG 1.1//EN" "http://www.w3.org/Graphics/SVG/1.1/DTD/svg11.dtd">
<svg version="1.1" id="Capa_1" xmlns="http://www.w3.org/2000/svg" xmlns:xlink="http://www.w3.org/1999/xlink" x="0px" y="0px"
	 width="435.939px" height="435.94px" viewBox="0 0 435.939 435.94" style="enable-background:new 0 0 435.939 435.94;"
	 xml:space="preserve">
<g>
	<path d="M425.939,234.797h-3v-65c0-2.61-1.02-5.117-2.844-6.985l-32.219-33c-1.881-1.928-4.461-3.015-7.154-3.015h-85.783
		c-5.521,0-10,4.478-10,10v122.515H263.94V98.645c0-5.522-4.478-10-10-10H23c-5.523,0-10,4.478-10,10v136.151h-3
		c-5.523,0-10,4.478-10,10v46c0,5.522,4.477,10,10,10h13h12.502c0,25.681,20.818,46.498,46.498,46.498
		c25.68,0,46.497-20.817,46.497-46.498h0.502c0,25.681,20.818,46.498,46.498,46.498c25.68,0,46.497-20.817,46.497-46.498h81.613
		h3.836c0,25.681,20.816,46.498,46.496,46.498c25.682,0,46.498-20.817,46.498-46.498h12.502h13c5.523,0,10-4.478,10-10v-46
		C435.939,239.274,431.463,234.797,425.939,234.797z M82,317.295c-9.097,0-16.498-7.401-16.498-16.498
		c0-9.098,7.401-16.497,16.498-16.497c9.097,0,16.497,7.399,16.497,16.497C98.497,309.894,91.096,317.295,82,317.295z
		 M131.987,211.014l-9.652,16.383c-0.454,0.78-1.284,1.238-2.157,1.237c-0.199,0-0.401-0.024-0.6-0.074
		c-1.076-0.271-1.869-1.216-1.911-2.323l0.013-2.98l-22.992-0.006c-0.851-0.002-1.641-0.438-2.097-1.154
		c-2.447-3.85-10.818-17.101-15.813-26.022c-2.501-4.455-2.941-8.847-1.205-12.046l15.432-28.416c0.316-0.581,0.85-1.013,1.483-1.2
		c0.635-0.188,1.315-0.115,1.896,0.2l18.441,10.021c1.208,0.657,1.656,2.168,1,3.378L97.448,198.06l20.227-0.009l-0.012-2.946
		c-0.033-1.093,0.648-2.08,1.683-2.435c1.035-0.355,2.18,0.009,2.823,0.893l9.681,14.734
		C132.43,209.094,132.484,210.16,131.987,211.014z M125.998,147.99l2.543,1.536c0.95,0.541,1.438,1.638,1.202,2.706
		c-0.236,1.067-1.142,1.856-2.231,1.945l-17.62,0.592c-0.984,0.081-1.924-0.429-2.393-1.298l-8.983-16.783
		c-0.429-0.794-0.388-1.741,0.067-2.487c0.104-0.169,0.229-0.329,0.375-0.473c0.792-0.779,2-0.941,2.967-0.399l2.552,1.541
		l11.997-19.614c0.444-0.724,1.228-1.172,2.077-1.188l30.45-0.001c5.836,0,9.084,2.145,10.913,5.293l16.139,28.02
		c0.331,0.572,0.422,1.252,0.252,1.893c-0.17,0.639-0.587,1.183-1.159,1.515l-18.157,10.526c-1.189,0.69-2.712,0.284-3.403-0.905
		l-17.041-29.679L125.998,147.99z M175.497,317.295c-9.097,0-16.498-7.401-16.498-16.498c0-9.098,7.401-16.497,16.498-16.497
		c9.097,0,16.497,7.399,16.497,16.497C191.994,309.894,184.594,317.295,175.497,317.295z M199.771,189.949
		c-2.203,3.992-9.813,17.696-15.245,26.358c-2.708,4.332-6.351,6.825-9.991,6.837l-32.335-0.006
		c-0.661,0.001-1.296-0.259-1.766-0.726c-0.469-0.467-0.731-1.101-0.733-1.762l-0.056-20.988c-0.004-1.375,1.108-2.492,2.484-2.497
		l34.222,0.053l-9.69-17.755l-2.601,1.436c-0.943,0.554-2.138,0.429-2.944-0.309c-0.806-0.738-1.038-1.916-0.571-2.905l8.283-15.563
		c0.422-0.894,1.333-1.452,2.32-1.425l19.026,0.597c0.902,0.023,1.702,0.532,2.121,1.299c0.095,0.174,0.171,0.363,0.223,0.562
		c0.279,1.074-0.182,2.202-1.135,2.77l-2.609,1.441l11.005,20.188C200.184,188.302,200.181,189.204,199.771,189.949z
		 M353.939,317.295c-9.096,0-16.496-7.401-16.496-16.498c0-9.098,7.4-16.497,16.496-16.497c9.098,0,16.498,7.399,16.498,16.497
		C370.438,309.894,363.037,317.295,353.939,317.295z M392.273,205.444c0,2.405-1.951,4.356-4.355,4.356h-67.955
		c-2.404,0-4.355-1.951-4.355-4.356v-45.36c0-2.406,1.951-4.356,4.355-4.356h49.971c1.172,0,2.297,0.474,3.117,1.313l17.984,18.421
		c0.795,0.813,1.238,1.906,1.238,3.043V205.444L392.273,205.444z"/>
</g>
<g>
</g>
<g>
</g>
<g>
</g>
<g>
</g>
<g>
</g>
<g>
</g>
<g>
</g>
<g>
</g>
<g>
</g>
<g>
</g>
<g>
</g>
<g>
</g>
<g>
</g>
<g>
</g>
<g>
</g>
</svg>
