<?xml version="1.0" encoding="iso-8859-1"?>
<!-- Generator: Adobe Illustrator 16.0.0, SVG Export Plug-In . SVG Version: 6.00 Build 0)  -->
<!DOCTYPE svg PUBLIC "-//W3C//DTD SVG 1.1//EN" "http://www.w3.org/Graphics/SVG/1.1/DTD/svg11.dtd">
<svg version="1.1" id="Capa_1" xmlns="http://www.w3.org/2000/svg" xmlns:xlink="http://www.w3.org/1999/xlink" x="0px" y="0px"
	 width="456.876px" height="456.876px" viewBox="0 0 456.876 456.876" style="enable-background:new 0 0 456.876 456.876;"
	 xml:space="preserve">
<g>
	<g>
		<path d="M453.869,206.053L209.656,46.232c-9.209-6.026-21.561-3.446-27.587,5.763l-57.379,87.679
			c-0.1-2.053-1.13-4.032-2.98-5.243l-23.622-15.459c-3.069-2.008-7.186-1.148-9.194,1.921l-33.829,51.69
			c-2.008,3.069-1.147,7.187,1.921,9.195l23.623,15.459c3.068,2.009,7.187,1.149,9.194-1.921l0.5-0.762l7.411,70.808
			c0.208,1.986,1.298,3.774,2.969,4.867l217.877,142.585c3.068,2.009,7.186,1.149,9.195-1.921l128.035-195.645
			C457.799,212.179,456.939,208.062,453.869,206.053z M169.921,143.338l34.584-52.846l76.722,50.209L169.921,143.338z"/>
		<path d="M41.154,233.301c-0.945-1.016-2.712-1.016-3.657,0C35.966,234.943,0,273.767,0,294.847
			c0,21.684,17.641,39.324,39.325,39.324c21.684,0,39.325-17.641,39.325-39.324C78.651,273.767,42.686,234.943,41.154,233.301z"/>
	</g>
</g>
<g>
</g>
<g>
</g>
<g>
</g>
<g>
</g>
<g>
</g>
<g>
</g>
<g>
</g>
<g>
</g>
<g>
</g>
<g>
</g>
<g>
</g>
<g>
</g>
<g>
</g>
<g>
</g>
<g>
</g>
</svg>
