<?xml version="1.0" encoding="iso-8859-1"?>
<!-- Generator: Adobe Illustrator 16.0.0, SVG Export Plug-In . SVG Version: 6.00 Build 0)  -->
<!DOCTYPE svg PUBLIC "-//W3C//DTD SVG 1.1//EN" "http://www.w3.org/Graphics/SVG/1.1/DTD/svg11.dtd">
<svg version="1.1" id="Capa_1" xmlns="http://www.w3.org/2000/svg" xmlns:xlink="http://www.w3.org/1999/xlink" x="0px" y="0px"
	 width="462.543px" height="462.543px" viewBox="0 0 462.543 462.543" style="enable-background:new 0 0 462.543 462.543;"
	 xml:space="preserve">
<g>
	<g>
		<circle cx="348.611" cy="73.825" r="49.498"/>
		<path d="M461.613,406.478l-38.328-137.121l-17.666-148.738c-0.18-1.512-1.039-2.859-2.334-3.661s-2.883-0.969-4.315-0.456
			c0,0-59.369,21.315-59.689,21.523c-2.545,0.939-4.94,2.4-7.01,4.412l-75.004,72.933c-5.494,5.342-7.254,13.069-5.25,19.946
			l-25.91,21.902H9c-3.258,0-6.26,1.76-7.852,4.602c-1.592,2.842-1.525,6.32,0.176,9.099l57.314,93.618
			c-7.977,6.867-13.043,17.029-13.043,28.357c0,20.637,16.789,37.426,37.426,37.426c17.533,0,32.283-12.123,36.324-28.426h53.026
			c0.119,0.088,26.355,17.596,26.355,17.596c1.512,1.01,3.252,1.514,4.992,1.514c1.795,0,3.59-0.537,5.131-1.605
			c3.035-2.107,4.475-5.855,3.631-9.451l-7.955-33.893l33.938-105.71l25.873-21.874c2.215,0.811,4.541,1.238,6.875,1.238
			c5.023,0,10.056-1.882,13.939-5.661l46.898-45.604l-6.711,76.57l-32.964,30.977c-7.018,6.596-9.622,16.634-6.698,25.809l28.354,89
			c3.39,10.633,13.224,17.418,23.814,17.418c2.514,0,5.071-0.385,7.596-1.188c13.156-4.191,20.422-18.254,16.23-31.41
			l-23.572-73.984l39.824-37.426h0.391l35.145,125.73c3.089,11.047,13.13,18.275,24.064,18.275c2.227,0,4.492-0.301,6.744-0.93
			C457.564,433.567,465.33,419.774,461.613,406.478z M83.021,410.319c-9.609,0-17.426-7.816-17.426-17.426
			s7.816-17.426,17.426-17.426c9.607,0,17.426,7.816,17.426,17.426S92.628,410.319,83.021,410.319z"/>
		<path d="M28.9,245.073h188.744c0.523,0,1.01-0.275,1.279-0.725c0.271-0.449,0.285-1.006,0.039-1.471l-12.947-24.403
			c-0.123-0.23-0.303-0.425-0.523-0.564l-13.447-8.465c-0.615-0.387-1.416-0.276-1.902,0.261l-3.008,3.32l-2.98-10.086
			c-0.09-0.306-0.275-0.575-0.531-0.767l-16.994-12.886c-0.428-0.325-0.998-0.395-1.492-0.182l-15.641,6.712l-17.779,2.883
			l-15.385-7.511c-0.063-0.031-0.127-0.058-0.195-0.079l-12.699-4.109c-0.457-0.148-0.961-0.066-1.35,0.222l-11.16,8.28
			l-14.42-0.481c-0.32-0.008-0.639,0.083-0.904,0.269l-15.688,10.956c-0.4,0.279-0.639,0.737-0.639,1.225v4.899l-10.291,8.516
			c-0.039,0.034-0.078,0.069-0.115,0.107l-21.039,21.539c-0.422,0.43-0.543,1.07-0.309,1.623
			C27.755,244.712,28.298,245.073,28.9,245.073z"/>
	</g>
</g>
<g>
</g>
<g>
</g>
<g>
</g>
<g>
</g>
<g>
</g>
<g>
</g>
<g>
</g>
<g>
</g>
<g>
</g>
<g>
</g>
<g>
</g>
<g>
</g>
<g>
</g>
<g>
</g>
<g>
</g>
</svg>
