<?xml version="1.0" encoding="iso-8859-1"?>
<!-- Generator: Adobe Illustrator 16.0.0, SVG Export Plug-In . SVG Version: 6.00 Build 0)  -->
<!DOCTYPE svg PUBLIC "-//W3C//DTD SVG 1.1//EN" "http://www.w3.org/Graphics/SVG/1.1/DTD/svg11.dtd">
<svg version="1.1" id="Capa_1" xmlns="http://www.w3.org/2000/svg" xmlns:xlink="http://www.w3.org/1999/xlink" x="0px" y="0px"
	 width="443.4px" height="443.4px" viewBox="0 0 443.4 443.4" style="enable-background:new 0 0 443.4 443.4;" xml:space="preserve"
	>
<g>
	<path d="M429.126,207.426c0-114.016-92.47-206.831-206.352-207.412C222.414,0.006,222.054,0,221.7,0s-0.714,0.005-1.074,0.014
		C106.744,0.596,14.274,93.41,14.274,207.426c0,98.154,68.539,180.568,160.265,201.975l77.392,31.78
		c3.834,1.472,7.693,2.219,11.473,2.219c0.001,0,0,0,0.001,0c9.516,0,15.583-4.697,16.531-5.482
		c7.667-5.482,12.238-14.352,12.238-23.748c0-1.738-0.156-3.491-0.447-5.087l-0.396-2.923c1.487-0.734,2.932-1.473,4.31-2.205
		c8.721-4.637,15.571-8.591,21.927-12.646C383.812,356.639,429.126,287.235,429.126,207.426z M383.046,180.064H307.79
		c-2.063-41.676-8.824-80.377-19.552-111.057c-1.649-4.719-3.352-9.122-5.092-13.243C334.872,76.797,373.491,123.55,383.046,180.064
		z M367.864,234.789c-0.712,1.344-1.559,2.787-2.391,4.184c-13.144,22.223-32.417,42.201-55.74,57.777
		c-3.255,2.174-6.619,4.229-10.066,6.182c4.174-21.084,6.934-44.111,8.123-68.143H367.864z M196.488,83.457
		c11.405-32.616,22.962-39.676,25.212-39.676s13.807,7.06,25.212,39.677c9.211,26.342,15.093,59.949,17.05,96.606h-84.522
		C181.395,143.406,187.277,109.8,196.488,83.457z M263.961,234.789c-1.169,21.922-3.752,42.737-7.606,61.572
		c-1.773-0.334-3.578-0.508-5.406-0.508c-6.417,0-12.752,2.16-17.838,6.086l-36.933,28.527
		c-9.029-26.203-14.804-59.443-16.738-95.678H263.961z M160.254,55.764c-1.741,4.121-3.442,8.524-5.092,13.243
		c-10.728,30.68-17.487,69.381-19.552,111.057H60.354C69.908,123.55,108.528,76.797,160.254,55.764z M60.354,234.789h75.255
		c2.065,41.676,8.825,80.376,19.552,111.057c1.578,4.514,3.205,8.731,4.867,12.696c-0.112,0.103-0.22,0.208-0.329,0.312
		C108.254,337.711,69.873,291.1,60.354,234.789z M262.993,418.149h-0.025c-0.521,0-1.029-0.102-1.513-0.3l-83.193-34.162
		c-1.311-0.538-2.242-1.745-2.432-3.149c-0.189-1.404,0.39-2.813,1.511-3.68l71.173-54.976c0.693-0.537,1.559-0.83,2.434-0.83
		c0.52,0,1.027,0.1,1.511,0.297c1.312,0.539,2.242,1.744,2.433,3.148l2.863,21.232l2.85-0.678
		c22.505-5.34,44.332-14.797,63.126-27.349c26.444-17.662,48.379-40.45,63.43-65.896c1.386-2.326,2.84-4.832,4.079-7.405
		c0.86-1.788,3.062-2.703,4.95-2.013c1.931,0.705,3,2.74,2.487,4.729c-3.63,14.111-10.169,27.308-15.459,37.226
		c-7.777,14.586-17.217,28.416-28.051,41.107c-9.14,10.706-19.039,20.42-29.422,28.871c-6.537,5.321-13.326,10.28-20.18,14.74
		c-6.211,4.042-12.921,7.938-21.757,12.637c-5.957,3.168-12.218,5.86-18.095,8.298l-1.885,0.782l3.001,22.257l0.043,0.237
		c0.065,0.29,0.101,0.59,0.101,0.892C266.972,416.364,265.187,418.149,262.993,418.149z"/>
</g>
<g>
</g>
<g>
</g>
<g>
</g>
<g>
</g>
<g>
</g>
<g>
</g>
<g>
</g>
<g>
</g>
<g>
</g>
<g>
</g>
<g>
</g>
<g>
</g>
<g>
</g>
<g>
</g>
<g>
</g>
</svg>
