<?xml version="1.0" encoding="iso-8859-1"?>
<!-- Generator: Adobe Illustrator 18.0.0, SVG Export Plug-In . SVG Version: 6.00 Build 0)  -->
<!DOCTYPE svg PUBLIC "-//W3C//DTD SVG 1.1//EN" "http://www.w3.org/Graphics/SVG/1.1/DTD/svg11.dtd">
<svg version="1.1" id="Capa_1" xmlns="http://www.w3.org/2000/svg" xmlns:xlink="http://www.w3.org/1999/xlink" x="0px" y="0px"
	 viewBox="0 0 455.731 455.731" style="enable-background:new 0 0 455.731 455.731;" xml:space="preserve">
<g>
	<rect x="0" y="0" style="fill:#4B5D50;" width="455.731" height="455.731"/>
	<path style="fill:#FFFFFF;" d="M253.805,206.398c-21.844-9.062-39.985-7.413-39.985-7.413l42.525,89.773l154.587-13.062
		c0,0-86.508-113.571-221.082-104.394l-8.559-22.19l-32.159,3.315l7.545,23.328C51.986,197.302,44.417,280.223,44.812,306.618
		l191.001-16.129l-39.308-101.92c81.981-9.227,134.03,61.968,134.03,61.968l-49.476,3.315L253.805,206.398z M184.581,262.09
		l-72.556,4.131c2.276-29.314,2.474-57.589,50.812-71.368L184.581,262.09z"/>
</g>
<g>
</g>
<g>
</g>
<g>
</g>
<g>
</g>
<g>
</g>
<g>
</g>
<g>
</g>
<g>
</g>
<g>
</g>
<g>
</g>
<g>
</g>
<g>
</g>
<g>
</g>
<g>
</g>
<g>
</g>
</svg>
